<svg width="70" height="68" viewBox="0 0 70 68" fill="none" xmlns="http://www.w3.org/2000/svg">
<g filter="url(#filter0_d)">
<path d="M55.7073 30.6889C49.9842 24.9657 40.705 24.9657 34.9818 30.6889C29.2587 36.412 29.2587 45.6912 34.9818 51.4144C40.705 57.1375 49.9842 57.1375 55.7073 51.4144C61.4305 45.6912 61.4307 36.412 55.7073 30.6889ZM41.0775 45.3186V36.7845H49.6116V45.3185L41.0775 45.3186Z" fill="#FFCF65"/>
<path d="M53.2693 33.1273C48.8927 28.7509 41.7969 28.7509 37.4203 33.1273C33.0438 37.5038 33.0439 44.5997 37.4203 48.9763C41.7968 53.3529 48.8927 53.3529 53.2693 48.9763C57.6459 44.5997 57.6458 37.504 53.2693 33.1273ZM41.0777 45.3189V36.7848H49.6118V45.3188L41.0777 45.3189Z" fill="#C8A564"/>
<path d="M40.4247 45.9719C40.2688 45.8159 40.1724 45.6004 40.1724 45.3623V36.7413C40.1724 36.2651 40.5581 35.8794 41.0343 35.8794H49.6553C50.1315 35.8794 50.5172 36.2651 50.5172 36.7413V45.3623C50.5172 45.8385 50.1315 46.2242 49.6553 46.2242H41.0343C40.7962 46.2242 40.5808 46.1279 40.4247 45.9719ZM41.8963 37.6032V44.5002H48.7933V37.6032H41.8963Z" fill="#FFCF65"/>
<path d="M36.8107 49.5859C32.1051 44.8802 32.1051 37.2235 36.8107 32.5178C41.5164 27.8121 49.1732 27.8121 53.8788 32.5178C58.5845 37.2235 58.5845 44.8802 53.8788 49.5859C49.1732 54.2916 41.5165 54.2918 36.8107 49.5859ZM52.6598 33.737C48.6261 29.7034 42.0634 29.7036 38.03 33.737C33.9966 37.7704 33.9963 44.3331 38.03 48.3668C42.0637 52.4005 48.6264 52.4002 52.6598 48.3668C56.6932 44.3334 56.6934 37.7707 52.6598 33.737Z" fill="#BE9155"/>
<path d="M35.0179 30.6891C29.2947 24.9659 20.0155 24.9659 14.2924 30.6891C8.56921 36.4123 8.56921 45.6915 14.2924 51.4146C20.0155 57.1378 29.2947 57.1378 35.0179 51.4146C40.7411 45.6915 40.7411 36.4123 35.0179 30.6891ZM20.3881 45.3188V36.7847H28.9221V45.3187L20.3881 45.3188Z" fill="#C4C4C4"/>
<path d="M32.8919 32.5455C28.2584 27.9119 20.7456 27.9119 16.1119 32.5455C11.4783 37.1791 11.4784 44.6919 16.1119 49.3256C20.7455 53.9592 28.2583 53.9592 32.8919 49.3256C37.5256 44.6919 37.5257 37.1793 32.8919 32.5455ZM20.8887 44.793V37.3223H28.4082V44.793H20.8887Z" fill="white"/>
<path d="M19.735 45.9719C19.5791 45.8159 19.4827 45.6004 19.4827 45.3623V36.7413C19.4827 36.2651 19.8684 35.8794 20.3446 35.8794H28.9656C29.4418 35.8794 29.8275 36.2651 29.8275 36.7413V45.3623C29.8275 45.8385 29.4418 46.2242 28.9656 46.2242H20.3446C20.1064 46.2242 19.8909 46.1279 19.735 45.9719ZM21.2065 37.6032V44.5002H28.1035V37.6032H21.2065Z" fill="#C4C4C4"/>
<path d="M35.0002 8.29297C26.9063 8.29297 20.345 14.8543 20.345 22.9482C20.345 31.042 26.9063 37.6034 35.0002 37.6034C43.094 37.6034 49.6554 31.042 49.6554 22.9482C49.6554 14.8543 43.094 8.29297 35.0002 8.29297ZM35.0002 28.9827L28.9657 22.9482L35.0002 16.9137L41.0347 22.9482L35.0002 28.9827Z" fill="#FFCF65"/>
<path d="M35.0001 11.7412C28.8106 11.7412 23.7932 16.7588 23.7932 22.9481C23.7932 29.1373 28.8108 34.1549 35.0001 34.1549C41.1893 34.1549 46.2069 29.1373 46.2069 22.9481C46.2069 16.7588 41.1894 11.7412 35.0001 11.7412ZM35.0001 28.9827L28.9656 22.9482L35.0001 16.9137L41.0346 22.9482L35.0001 28.9827Z" fill="#C8A564"/>
<path d="M35.0002 29.9064C34.7796 29.9064 34.5589 29.8222 34.3907 29.6539L28.2948 23.558C27.9581 23.2213 27.9581 22.6756 28.2948 22.3389L34.3907 16.243C34.7274 15.9063 35.273 15.9063 35.6097 16.243L41.7056 22.3389C42.0424 22.6756 42.0424 23.2213 41.7056 23.558L35.6097 29.6539C35.4413 29.8221 35.2207 29.9064 35.0002 29.9064ZM30.1232 22.9484L35.0002 27.8254L39.8771 22.9484L35.0002 18.0714L30.1232 22.9484Z" fill="#FFCF65"/>
<path d="M34.9999 35.0171C28.3449 35.0171 22.9309 29.6031 22.9309 22.9481C22.9309 16.2931 28.3449 10.8792 34.9999 10.8792C41.6549 10.8792 47.0688 16.2931 47.0688 22.9481C47.0688 29.6031 41.6548 35.0171 34.9999 35.0171ZM34.9999 12.6033C29.2954 12.6033 24.655 17.244 24.655 22.9481C24.655 28.6522 29.2955 33.293 34.9999 33.293C40.7043 33.293 45.3446 28.6522 45.3446 22.9481C45.3446 17.244 40.7044 12.6033 34.9999 12.6033Z" fill="#BE9155"/>
<path d="M41.8962 40.1898H28.1031C27.627 40.1898 27.241 39.8038 27.241 39.3277V37.6036C27.241 37.1275 27.627 36.7415 28.1031 36.7415H41.8962C42.3722 36.7415 42.7583 37.1275 42.7583 37.6036V39.3277C42.7583 39.804 42.3723 40.1898 41.8962 40.1898Z" fill="#FF4B4B"/>
<path d="M34.089 26.8279L41.3806 39.4572C41.6187 39.8695 42.1459 40.0107 42.5582 39.7727L44.0512 38.9106C44.4635 38.6725 44.6047 38.1453 44.3668 37.7331L37.0751 25.1037C36.8371 24.6914 36.3098 24.5502 35.8976 24.7882L34.4045 25.6503C33.9922 25.8883 33.851 26.4155 34.089 26.8279Z" fill="#FF4B4B"/>
<path d="M35.7461 26.8279L28.4545 39.4572C28.2164 39.8695 27.6892 40.0107 27.277 39.7727L25.7839 38.9106C25.3716 38.6725 25.2304 38.1453 25.4684 37.7331L32.76 25.1037C32.9981 24.6914 33.5253 24.5502 33.9375 24.7882L35.4306 25.6503C35.8429 25.8883 35.9842 26.4155 35.7461 26.8279Z" fill="#FF4B4B"/>
<path d="M30.0226 40.1897L32.0135 36.7415H30.0227L28.4548 39.4572C28.2953 39.7337 28.0054 39.8883 27.7074 39.8883C27.6118 39.8883 27.5167 39.8661 27.4236 39.8332C27.5807 40.0442 27.8201 40.1897 28.1034 40.1897H30.0226Z" fill="#C83741"/>
<path d="M34.0891 26.8278C33.851 26.4154 33.9923 25.8883 34.4046 25.6503L34.9177 25.3541L33.9375 24.7883C33.5252 24.5502 32.9979 24.6915 32.76 25.1038L32.3138 25.8765C32.1898 26.476 32.2666 27.1194 32.596 27.69L33.9223 29.9872L34.9177 28.2631L34.0891 26.8278Z" fill="#C83741"/>
<path d="M42.9234 35.2324C42.6081 35.0953 42.2616 35.0173 41.8965 35.0173H38.8174L39.8128 36.7415H41.8965C42.3726 36.7415 42.7586 37.1275 42.7586 37.6036V39.3277C42.7586 39.4702 42.7157 39.5989 42.6545 39.7173L44.0516 38.9107C44.464 38.6726 44.6052 38.1454 44.3671 37.7332L42.9234 35.2324Z" fill="#C83741"/>
</g>
<defs>
<filter id="filter0_d" x="0" y="-1" width="70" height="70" filterUnits="userSpaceOnUse" color-interpolation-filters="sRGB">
<feFlood flood-opacity="0" result="BackgroundImageFix"/>
<feColorMatrix in="SourceAlpha" type="matrix" values="0 0 0 0 0 0 0 0 0 0 0 0 0 0 0 0 0 0 127 0"/>
<feOffset dy="2"/>
<feGaussianBlur stdDeviation="5"/>
<feColorMatrix type="matrix" values="0 0 0 0 0 0 0 0 0 0 0 0 0 0 0 0 0 0 0.1 0"/>
<feBlend mode="normal" in2="BackgroundImageFix" result="effect1_dropShadow"/>
<feBlend mode="normal" in="SourceGraphic" in2="effect1_dropShadow" result="shape"/>
</filter>
</defs>
</svg>
