<svg width="50" height="50" viewBox="0 0 50 50" fill="none" xmlns="http://www.w3.org/2000/svg">
<path d="M45.7314 24.147C40.0402 18.2329 30.8127 18.2329 25.1215 24.147C19.4302 30.0612 19.4302 39.6501 25.1215 45.5643C30.8127 51.4784 40.0402 51.4784 45.7314 45.5643C51.4227 39.6501 51.4229 30.0612 45.7314 24.147ZM31.1832 39.265V30.4461H39.6697V39.2649L31.1832 39.265Z" fill="#FFCF65"/>
<path d="M43.2528 26.6969C38.9959 22.1909 32.0941 22.1909 27.8372 26.6969C23.5803 31.2028 23.5804 38.5087 27.8372 43.0148C32.094 47.5208 38.9959 47.5208 43.2528 43.0148C47.5097 38.5087 47.5097 31.203 43.2528 26.6969ZM31.3945 39.2491V30.4625H39.6953V39.249L31.3945 39.2491Z" fill="#C8A564"/>
<path d="M30.3606 39.6575C30.1963 39.5053 30.0947 39.2949 30.0947 39.0626V30.6488C30.0947 30.1841 30.5012 29.8076 31.0029 29.8076H40.087C40.5887 29.8076 40.9952 30.1841 40.9952 30.6488V39.0626C40.9952 39.5273 40.5887 39.9038 40.087 39.9038H31.0029C30.7521 39.9038 30.5251 39.8097 30.3606 39.6575ZM31.9113 31.49V38.2212H39.1787V31.49H31.9113Z" fill="#FFCF65"/>
<path d="M27.1631 43.6986C22.5413 38.8226 22.5413 30.8887 27.1631 26.0127C31.785 21.1367 39.3053 21.1367 43.9271 26.0127C48.5489 30.8887 48.5489 38.8226 43.9271 43.6986C39.3053 48.5746 31.7851 48.5748 27.1631 43.6986ZM42.7298 27.2761C38.768 23.0965 32.3222 23.0967 28.3607 27.2761C24.3991 31.4555 24.3988 38.2558 28.3607 42.4355C32.3225 46.6152 38.7682 46.6149 42.7298 42.4355C46.6913 38.2561 46.6915 31.4558 42.7298 27.2761Z" fill="#BE9155"/>
<path d="M24.8785 24.147C19.1872 18.2329 9.95971 18.2329 4.26845 24.147C-1.42282 30.0612 -1.42282 39.6501 4.26845 45.5643C9.95971 51.4784 19.1872 51.4784 24.8785 45.5643C30.5697 39.6501 30.5697 30.0612 24.8785 24.147ZM10.3302 39.265V30.4461H18.8166V39.2649L10.3302 39.265Z" fill="#FFCF65"/>
<path d="M22.3997 26.6969C18.1429 22.1909 11.241 22.1909 6.98414 26.6969C2.72724 31.2028 2.72734 38.5087 6.98414 43.0148C11.241 47.5208 18.1428 47.5208 22.3997 43.0148C26.6566 38.5087 26.6567 31.203 22.3997 26.6969ZM10.5417 39.2491V30.4625H18.8423V39.249L10.5417 39.2491Z" fill="#C8A564"/>
<path d="M9.5076 39.6575C9.34326 39.5053 9.2417 39.2949 9.2417 39.0626V30.6488C9.2417 30.1841 9.64816 29.8076 10.1499 29.8076H19.234C19.7357 29.8076 20.1422 30.1841 20.1422 30.6488V39.0626C20.1422 39.5273 19.7357 39.9038 19.234 39.9038H10.1499C9.89893 39.9038 9.67183 39.8097 9.5076 39.6575ZM11.0581 31.49V38.2212H18.3255V31.49H11.0581Z" fill="#FFCF65"/>
<path d="M6.27521 43.6986C1.69961 38.8226 1.69961 30.8887 6.27521 26.0127C10.8508 21.1367 18.2959 21.1367 22.8715 26.0127C27.4471 30.8887 27.4471 38.8226 22.8715 43.6986C18.2959 48.5746 10.851 48.5748 6.27521 43.6986ZM21.6862 27.2761C17.764 23.0965 11.3827 23.0967 7.46075 27.2761C3.53883 31.4555 3.53864 38.2558 7.46075 42.4355C11.3829 46.6152 17.7643 46.6149 21.6862 42.4355C25.6081 38.2561 25.6083 31.4558 21.6862 27.2761Z" fill="#BE9155"/>
<path d="M25 1.2019C16.6896 1.2019 9.95264 7.98219 9.95264 16.3461C9.95264 24.7101 16.6896 31.4904 25 31.4904C33.3105 31.4904 40.0474 24.7101 40.0474 16.3461C40.0474 7.98219 33.3105 1.2019 25 1.2019ZM25 22.582L18.8041 16.3461L25 10.1103L31.196 16.3461L25 22.582Z" fill="#FFCF65"/>
<path d="M25.1185 4.80762C18.8365 4.80762 13.7441 9.97367 13.7441 16.3461C13.7441 22.7185 18.8367 27.8845 25.1185 27.8845C31.4004 27.8845 36.493 22.7185 36.493 16.3461C36.493 9.97367 31.4004 4.80762 25.1185 4.80762ZM25.1185 22.5592L18.9938 16.3462L25.1185 10.1331L31.2433 16.3462L25.1185 22.5592Z" fill="#C8A564"/>
<path d="M24.9998 23.3173C24.7857 23.3173 24.5716 23.233 24.4083 23.0643L18.4915 16.9568C18.1646 16.6195 18.1646 16.0728 18.4915 15.7355L24.4083 9.62802C24.7351 9.29066 25.2647 9.29066 25.5915 9.62802L31.5083 15.7355C31.8352 16.0728 31.8352 16.6195 31.5083 16.9568L25.5915 23.0643C25.428 23.2329 25.2139 23.3173 24.9998 23.3173ZM20.2662 16.3461L24.9998 21.2323L29.7335 16.3461L24.9998 11.4599L20.2662 16.3461Z" fill="#FFCF65"/>
<path d="M24.9999 28.8462C18.2706 28.8462 12.7961 23.2389 12.7961 16.3462C12.7961 9.45352 18.2706 3.84619 24.9999 3.84619C31.7293 3.84619 37.2037 9.45352 37.2037 16.3462C37.2037 23.2389 31.7292 28.8462 24.9999 28.8462ZM24.9999 5.63189C19.2317 5.63189 14.5395 10.4384 14.5395 16.3462C14.5395 22.254 19.2318 27.0605 24.9999 27.0605C30.7681 27.0605 35.4602 22.254 35.4602 16.3462C35.4602 10.4384 30.7682 5.63189 24.9999 5.63189Z" fill="#BE9155"/>
<path d="M31.9255 33.8555H18.1547C17.6794 33.8555 17.2939 33.4645 17.2939 32.9823V31.2362C17.2939 30.754 17.6794 30.363 18.1547 30.363H31.9255C32.4008 30.363 32.7862 30.754 32.7862 31.2362V32.9823C32.7862 33.4647 32.4009 33.8555 31.9255 33.8555Z" fill="#FF4B4B"/>
<path d="M24.131 20.3227L31.4109 33.1135C31.6486 33.5311 32.175 33.6741 32.5866 33.4331L34.0772 32.56C34.4889 32.3188 34.6298 31.7848 34.3922 31.3674L27.1124 18.5765C26.8747 18.159 26.3483 18.0159 25.9367 18.257L24.4461 19.1301C24.0344 19.3711 23.8934 19.905 24.131 20.3227Z" fill="#FF4B4B"/>
<path d="M25.7853 20.3227L18.5054 33.1135C18.2677 33.5311 17.7413 33.6741 17.3298 33.4331L15.8391 32.56C15.4275 32.3188 15.2865 31.7848 15.5241 31.3674L22.804 18.5765C23.0417 18.159 23.5681 18.0159 23.9796 18.257L25.4703 19.1301C25.8819 19.3711 26.023 19.905 25.7853 20.3227Z" fill="#FF4B4B"/>
<path d="M20.0709 33.8554L22.0586 30.363H20.071L18.5057 33.1135C18.3463 33.3935 18.057 33.5502 17.7594 33.5502C17.664 33.5502 17.5691 33.5276 17.4761 33.4943C17.633 33.708 17.8719 33.8554 18.1548 33.8554H20.0709Z" fill="#C83741"/>
<path d="M24.1308 20.3227C23.8931 19.905 24.0342 19.3711 24.4458 19.1301L24.9581 18.8301L23.9795 18.257C23.5678 18.0159 23.0414 18.159 22.8038 18.5766L22.3584 19.3592C22.2346 19.9663 22.3113 20.618 22.6401 21.1959L23.9643 23.5224L24.9581 21.7763L24.1308 20.3227Z" fill="#C83741"/>
<path d="M32.9509 28.8347C32.6362 28.6959 32.2903 28.6169 31.9257 28.6169H28.8516L29.8454 30.3631H31.9257C32.401 30.3631 32.7864 30.7541 32.7864 31.2363V32.9824C32.7864 33.1267 32.7436 33.2571 32.6825 33.377L34.0773 32.5601C34.4891 32.319 34.63 31.785 34.3923 31.3675L32.9509 28.8347Z" fill="#C83741"/>
</svg>
