<svg width="70" height="68" viewBox="0 0 70 68" fill="none" xmlns="http://www.w3.org/2000/svg">
<g clip-path="url(#clip0)" filter="url(#filter0_d)">
<path d="M55.7075 30.6889C49.9843 24.9657 40.7051 24.9657 34.9819 30.6889C29.2588 36.412 29.2588 45.6912 34.9819 51.4144C40.7051 57.1375 49.9843 57.1375 55.7075 51.4144C61.4306 45.6912 61.4308 36.412 55.7075 30.6889ZM41.0777 45.3186V36.7845H49.6118V45.3185L41.0777 45.3186Z" fill="#FFCF65"/>
<path d="M53.2693 33.1271C48.8927 28.7506 41.7969 28.7506 37.4203 33.1271C33.0438 37.5036 33.0439 44.5995 37.4203 48.976C41.7968 53.3526 48.8927 53.3526 53.2693 48.976C57.6459 44.5995 57.6458 37.5038 53.2693 33.1271ZM41.0777 45.3186V36.7845H49.6118V45.3185L41.0777 45.3186Z" fill="#C8A564"/>
<path d="M40.4247 45.9719C40.2688 45.8159 40.1724 45.6004 40.1724 45.3623V36.7413C40.1724 36.2651 40.5581 35.8794 41.0343 35.8794H49.6553C50.1315 35.8794 50.5172 36.2651 50.5172 36.7413V45.3623C50.5172 45.8385 50.1315 46.2242 49.6553 46.2242H41.0343C40.7962 46.2242 40.5808 46.1279 40.4247 45.9719ZM41.8963 37.6032V44.5002H48.7933V37.6032H41.8963Z" fill="#FFCF65"/>
<path d="M36.8107 49.5856C32.1051 44.88 32.1051 37.2232 36.8107 32.5175C41.5164 27.8119 49.1732 27.8119 53.8788 32.5175C58.5845 37.2232 58.5845 44.88 53.8788 49.5856C49.1732 54.2913 41.5165 54.2915 36.8107 49.5856ZM52.6598 33.7368C48.6261 29.7032 42.0634 29.7034 38.03 33.7368C33.9966 37.7702 33.9963 44.3329 38.03 48.3666C42.0637 52.4003 48.6264 52.4 52.6598 48.3666C56.6932 44.3332 56.6934 37.7705 52.6598 33.7368Z" fill="#BE9155"/>
<path d="M55.7213 30.726C49.9981 25.0028 40.7189 25.0028 34.9957 30.726C29.2726 36.4491 29.2726 45.7283 34.9957 51.4515C40.7189 57.1746 49.9981 57.1746 55.7213 51.4515C61.4444 45.7283 61.4444 36.4491 55.7213 30.726ZM41.0915 45.3557V36.8216H49.6255V45.3556L41.0915 45.3557Z" fill="#E0E0E0"/>
<path d="M53.5951 32.5826C48.9615 27.949 41.4487 27.949 36.8151 32.5826C32.1814 37.2162 32.1815 44.729 36.8151 49.3627C41.4486 53.9964 48.9614 53.9964 53.5951 49.3627C58.2287 44.729 58.2288 37.2164 53.5951 32.5826ZM41.5918 44.8301V37.3594H49.1114V44.8301H41.5918Z" fill="white"/>
<path d="M40.4383 46.009C40.2823 45.853 40.1859 45.6375 40.1859 45.3994V36.7784C40.1859 36.3022 40.5717 35.9165 41.0478 35.9165H49.6688C50.145 35.9165 50.5308 36.3022 50.5308 36.7784V45.3994C50.5308 45.8756 50.145 46.2613 49.6688 46.2613H41.0478C40.8096 46.2613 40.5941 46.165 40.4383 46.009ZM41.9097 37.6403V44.5373H48.8067V37.6403H41.9097Z" fill="#E0E0E0"/>
<path d="M35.0179 30.6889C29.2947 24.9657 20.0155 24.9657 14.2924 30.6889C8.56921 36.412 8.56921 45.6912 14.2924 51.4144C20.0155 57.1375 29.2947 57.1375 35.0179 51.4144C40.7411 45.6912 40.7411 36.412 35.0179 30.6889ZM20.3881 45.3186V36.7845H28.9221V45.3185L20.3881 45.3186Z" fill="#C4C4C4"/>
<path d="M32.8919 32.5455C28.2584 27.9119 20.7456 27.9119 16.1119 32.5455C11.4783 37.1791 11.4784 44.6919 16.1119 49.3256C20.7455 53.9592 28.2583 53.9592 32.8919 49.3256C37.5256 44.6919 37.5257 37.1793 32.8919 32.5455ZM20.8887 44.793V37.3223H28.4082V44.793H20.8887Z" fill="white"/>
<path d="M19.735 45.9719C19.5791 45.8159 19.4827 45.6004 19.4827 45.3623V36.7413C19.4827 36.2651 19.8684 35.8794 20.3446 35.8794H28.9656C29.4418 35.8794 29.8275 36.2651 29.8275 36.7413V45.3623C29.8275 45.8385 29.4418 46.2242 28.9656 46.2242H20.3446C20.1064 46.2242 19.8909 46.1279 19.735 45.9719ZM21.2065 37.6032V44.5002H28.1035V37.6032H21.2065Z" fill="#C4C4C4"/>
<path d="M35.0002 8.29297C26.9063 8.29297 20.345 14.8543 20.345 22.9482C20.345 31.042 26.9063 37.6034 35.0002 37.6034C43.094 37.6034 49.6554 31.042 49.6554 22.9482C49.6554 14.8543 43.094 8.29297 35.0002 8.29297ZM35.0002 28.9827L28.9657 22.9482L35.0002 16.9137L41.0347 22.9482L35.0002 28.9827Z" fill="#FFCF65"/>
<path d="M34.9999 11.7412C28.8105 11.7412 23.7931 16.7588 23.7931 22.9481C23.7931 29.1373 28.8107 34.1549 34.9999 34.1549C41.1892 34.1549 46.2068 29.1373 46.2068 22.9481C46.2068 16.7588 41.1893 11.7412 34.9999 11.7412ZM34.9999 28.9827L28.9655 22.9482L34.9999 16.9137L41.0344 22.9482L34.9999 28.9827Z" fill="#C8A564"/>
<path d="M35 29.9062C34.7794 29.9062 34.5588 29.822 34.3906 29.6536L28.2947 23.5577C27.9579 23.221 27.9579 22.6754 28.2947 22.3387L34.3906 16.2428C34.7273 15.9061 35.2729 15.9061 35.6096 16.2428L41.7055 22.3387C42.0422 22.6754 42.0422 23.221 41.7055 23.5577L35.6096 29.6536C35.4412 29.8219 35.2205 29.9062 35 29.9062ZM30.1231 22.9482L35 27.8251L39.877 22.9482L35 18.0712L30.1231 22.9482Z" fill="#FFCF65"/>
<path d="M34.9999 35.0173C28.3449 35.0173 22.9309 29.6034 22.9309 22.9484C22.9309 16.2934 28.3449 10.8794 34.9999 10.8794C41.6549 10.8794 47.0688 16.2934 47.0688 22.9484C47.0688 29.6034 41.6548 35.0173 34.9999 35.0173ZM34.9999 12.6035C29.2954 12.6035 24.655 17.2443 24.655 22.9484C24.655 28.6525 29.2955 33.2932 34.9999 33.2932C40.7043 33.2932 45.3446 28.6525 45.3446 22.9484C45.3446 17.2443 40.7044 12.6035 34.9999 12.6035Z" fill="#BE9155"/>
<path d="M41.8962 40.1895H28.1031C27.627 40.1895 27.241 39.8035 27.241 39.3274V37.6033C27.241 37.1272 27.627 36.7412 28.1031 36.7412H41.8962C42.3722 36.7412 42.7583 37.1272 42.7583 37.6033V39.3274C42.7583 39.8037 42.3723 40.1895 41.8962 40.1895Z" fill="#FF4B4B"/>
<path d="M34.0889 26.8276L41.3805 39.4569C41.6186 39.8692 42.1458 40.0105 42.558 39.7725L44.0511 38.9104C44.4634 38.6723 44.6046 38.145 44.3666 37.7328L37.075 25.1035C36.8369 24.6912 36.3097 24.55 35.8975 24.788L34.4044 25.6501C33.9921 25.8881 33.8509 26.4152 34.0889 26.8276Z" fill="#FF4B4B"/>
<path d="M35.7461 26.8276L28.4545 39.4569C28.2164 39.8692 27.6892 40.0105 27.277 39.7725L25.7839 38.9104C25.3716 38.6723 25.2304 38.145 25.4684 37.7328L32.76 25.1035C32.9981 24.6912 33.5253 24.55 33.9375 24.788L35.4306 25.6501C35.8429 25.8881 35.9842 26.4152 35.7461 26.8276Z" fill="#FF4B4B"/>
<path d="M30.0226 40.1895L32.0135 36.7412H30.0227L28.4548 39.4569C28.2953 39.7334 28.0054 39.8881 27.7074 39.8881C27.6118 39.8881 27.5167 39.8658 27.4236 39.8329C27.5807 40.044 27.8201 40.1895 28.1034 40.1895H30.0226Z" fill="#C83741"/>
<path d="M34.0892 26.8276C33.8511 26.4152 33.9924 25.888 34.4047 25.65L34.9178 25.3538L33.9376 24.788C33.5253 24.5499 32.9981 24.6912 32.7601 25.1035L32.3139 25.8763C32.19 26.4757 32.2667 27.1192 32.5961 27.6898L33.9224 29.987L34.9178 28.2628L34.0892 26.8276Z" fill="#C83741"/>
<path d="M42.9232 35.2321C42.608 35.095 42.2615 35.0171 41.8964 35.0171H38.8173L39.8127 36.7412H41.8964C42.3724 36.7412 42.7585 37.1273 42.7585 37.6033V39.3275C42.7585 39.4699 42.7156 39.5986 42.6544 39.717L44.0515 38.9105C44.4639 38.6724 44.6051 38.1451 44.367 37.7329L42.9232 35.2321Z" fill="#C83741"/>
</g>
<defs>
<filter id="filter0_d" x="0" y="-1" width="70" height="70" filterUnits="userSpaceOnUse" color-interpolation-filters="sRGB">
<feFlood flood-opacity="0" result="BackgroundImageFix"/>
<feColorMatrix in="SourceAlpha" type="matrix" values="0 0 0 0 0 0 0 0 0 0 0 0 0 0 0 0 0 0 127 0"/>
<feOffset dy="2"/>
<feGaussianBlur stdDeviation="5"/>
<feColorMatrix type="matrix" values="0 0 0 0 0 0 0 0 0 0 0 0 0 0 0 0 0 0 0.1 0"/>
<feBlend mode="normal" in2="BackgroundImageFix" result="effect1_dropShadow"/>
<feBlend mode="normal" in="SourceGraphic" in2="effect1_dropShadow" result="shape"/>
</filter>
<clipPath id="clip0">
<rect width="50" height="50" fill="white" transform="translate(10 7)"/>
</clipPath>
</defs>
</svg>
