<svg width="81" height="50" viewBox="0 0 81 50" fill="none" xmlns="http://www.w3.org/2000/svg">
<path d="M74.6471 50H6.35294C2.85882 50 0 47.1277 0 43.617V6.38298C0 2.87234 2.85882 0 6.35294 0H74.6471C78.1412 0 81 2.87234 81 6.38298V43.617C81 47.1277 78.1412 50 74.6471 50Z" fill="#FFC7D4"/>
<path d="M20.9707 9.86133H22.4991L20.0723 17H18.4219L16 9.86133H17.5284L18.8711 14.1094C18.946 14.36 19.0225 14.653 19.1006 14.9883C19.182 15.3203 19.2325 15.5514 19.252 15.6816C19.2878 15.3822 19.4099 14.8581 19.6182 14.1094L20.9707 9.86133ZM29.8819 13.4209C29.8819 14.6025 29.5889 15.5107 29.003 16.1455C28.417 16.7803 27.5772 17.0977 26.4834 17.0977C25.3897 17.0977 24.5498 16.7803 23.9639 16.1455C23.378 15.5107 23.085 14.5993 23.085 13.4111C23.085 12.223 23.378 11.3164 23.9639 10.6914C24.5531 10.0632 25.3962 9.74902 26.4932 9.74902C27.5902 9.74902 28.4284 10.0648 29.0078 10.6963C29.5905 11.3278 29.8819 12.236 29.8819 13.4209ZM24.6719 13.4209C24.6719 14.2184 24.8233 14.819 25.126 15.2227C25.4287 15.6263 25.8812 15.8281 26.4834 15.8281C27.6911 15.8281 28.295 15.0257 28.295 13.4209C28.295 11.8128 27.6944 11.0088 26.4932 11.0088C25.891 11.0088 25.4369 11.2122 25.1309 11.6191C24.8249 12.0228 24.6719 12.6234 24.6719 13.4209ZM37.1719 9.86133V14.4805C37.1719 15.0078 37.0531 15.4701 36.8155 15.8672C36.5811 16.2643 36.2409 16.5687 35.795 16.7803C35.349 16.9919 34.8216 17.0977 34.2129 17.0977C33.295 17.0977 32.5821 16.8633 32.0742 16.3945C31.5664 15.9225 31.3125 15.278 31.3125 14.4609V9.86133H32.8213V14.2314C32.8213 14.7816 32.932 15.1852 33.1534 15.4424C33.3747 15.6995 33.7409 15.8281 34.252 15.8281C34.7468 15.8281 35.1048 15.6995 35.3262 15.4424C35.5508 15.182 35.6631 14.7751 35.6631 14.2217V9.86133H37.1719ZM41.9522 11.0186C41.3825 11.0186 40.9414 11.2334 40.6289 11.6631C40.3164 12.0895 40.1602 12.6852 40.1602 13.4502C40.1602 15.042 40.7575 15.8379 41.9522 15.8379C42.4535 15.8379 43.0606 15.7126 43.7735 15.4619V16.7314C43.1875 16.9756 42.5332 17.0977 41.8106 17.0977C40.7722 17.0977 39.9779 16.7835 39.4278 16.1553C38.8776 15.5238 38.6026 14.6188 38.6026 13.4404C38.6026 12.6982 38.7377 12.0488 39.0078 11.4922C39.278 10.9323 39.6654 10.5042 40.17 10.208C40.6778 9.90853 41.2718 9.75879 41.9522 9.75879C42.6455 9.75879 43.3422 9.92643 44.042 10.2617L43.5537 11.4922C43.2868 11.3652 43.0183 11.2546 42.7481 11.1602C42.4779 11.0658 42.2126 11.0186 41.9522 11.0186ZM51.1465 17H49.6377V13.9189H46.8106V17H45.2969V9.86133H46.8106V12.6592H49.6377V9.86133H51.1465V17ZM57.0645 17H52.9532V9.86133H57.0645V11.1016H54.4668V12.6689H56.8838V13.9092H54.4668V15.75H57.0645V17ZM60.0723 13.0303H60.5606C61.0391 13.0303 61.3923 12.9505 61.6201 12.791C61.848 12.6315 61.9619 12.3809 61.9619 12.0391C61.9619 11.7005 61.8448 11.4596 61.6104 11.3164C61.3793 11.1732 61.0196 11.1016 60.5313 11.1016H60.0723V13.0303ZM60.0723 14.2607V17H58.5586V9.86133H60.6387C61.6088 9.86133 62.3265 10.0387 62.792 10.3936C63.2575 10.7451 63.4903 11.2806 63.4903 12C63.4903 12.4199 63.3747 12.7943 63.1436 13.123C62.9125 13.4486 62.5853 13.7041 62.1621 13.8896C63.2364 15.4945 63.9362 16.5312 64.2617 17H62.5821L60.878 14.2607H60.0723Z" fill="#A8192E"/>
<path d="M12.0706 25.7979C16.1471 25.7979 16.1471 28.9893 20.2235 28.9893C24.3 28.9893 24.3 25.7979 28.3765 25.7979C32.4529 25.7979 32.4529 28.9893 36.5294 28.9893C40.6059 28.9893 40.6059 25.7979 44.6824 25.7979C48.7588 25.7979 48.7588 28.9893 52.8353 28.9893C56.9118 28.9893 56.9118 25.7979 60.9882 25.7979C65.0647 25.7979 65.0647 28.9893 69.1412 28.9893" stroke="#A8192E" stroke-miterlimit="10" stroke-linecap="round"/>
<path d="M12.0706 34.3085C16.1471 34.3085 16.1471 37.5 20.2235 37.5C24.3 37.5 24.3 34.3085 28.3765 34.3085C32.4529 34.3085 32.4529 37.5 36.5294 37.5C40.6059 37.5 40.6059 34.3085 44.6824 34.3085C48.7588 34.3085 48.7588 37.5 52.8353 37.5C56.9118 37.5 56.9118 34.3085 60.9882 34.3085C65.0647 34.3085 65.0647 37.5 69.1412 37.5" stroke="#A8192E" stroke-miterlimit="10" stroke-linecap="round"/>
</svg>
