<svg width="64" height="64" viewBox="0 0 64 64" fill="none" xmlns="http://www.w3.org/2000/svg">
<path d="M31.9723 61.8365C48.4658 61.8365 61.8365 48.4658 61.8365 31.9723C61.8365 15.4788 48.4658 2.10815 31.9723 2.10815C15.4788 2.10815 2.10815 15.4788 2.10815 31.9723C2.10815 48.4658 15.4788 61.8365 31.9723 61.8365Z" stroke="white" stroke-width="4" stroke-miterlimit="10"/>
<path d="M40.7401 38.24C40.7401 39.9392 40.119 41.3396 38.8768 42.4412C37.6346 43.5427 35.8417 44.2224 33.4979 44.4802V48.2947H31.16V44.5857C28.2538 44.5388 25.869 44.0935 24.0057 43.2498V39.5408C25.0135 40.033 26.1913 40.449 27.5389 40.7888C28.8866 41.1169 30.0936 41.2869 31.16 41.2986V34.7244L29.6835 34.1794C27.7616 33.4412 26.3553 32.5623 25.4647 31.5427C24.5858 30.5115 24.1464 29.24 24.1464 27.7283C24.1464 26.1111 24.7733 24.781 26.0272 23.738C27.2928 22.6951 29.0038 22.0623 31.16 21.8396V18.8865H33.4979V21.7869C35.8768 21.8689 38.1327 22.3494 40.2655 23.2283L38.9823 26.4451C37.1425 25.7185 35.3143 25.2849 33.4979 25.1443V31.5427L34.8339 32.0525C37.0604 32.908 38.6014 33.8103 39.4569 34.7595C40.3124 35.7087 40.7401 36.8689 40.7401 38.24ZM36.5917 38.5037C36.5917 37.824 36.3514 37.2673 35.871 36.8337C35.4022 36.3884 34.6112 35.9607 33.4979 35.5505V41.158C35.5604 40.8416 36.5917 39.9568 36.5917 38.5037ZM28.2772 27.6931C28.2772 28.3611 28.4823 28.9177 28.8925 29.363C29.3143 29.8083 30.0702 30.2478 31.16 30.6814V25.2146C30.2225 25.3552 29.5077 25.6423 29.0155 26.0759C28.5233 26.5095 28.2772 27.0486 28.2772 27.6931Z" fill="white"/>
</svg>
