<svg width="70" height="51" viewBox="0 0 70 51" fill="none" xmlns="http://www.w3.org/2000/svg">
<path d="M61.6848 51H10.5978C8.04349 51 5.97827 48.9161 5.97827 46.3387V5.20963C5.97827 2.63221 8.04349 0.54834 10.5978 0.54834H61.6304C64.1848 0.54834 66.25 2.63221 66.25 5.20963V46.2838C66.3044 48.9161 64.2391 51 61.6848 51Z" fill="#FFC7D4"/>
<path d="M58.3152 0C62.2282 0 66.0869 0 70 0C70 4.22258 70 8.5 70 12.7226C69.5652 14.971 67.0652 16.671 64.1847 16.671C61.1956 16.671 58.6413 14.8613 58.3695 12.4484C58.3152 8.28065 58.3152 4.16774 58.3152 0Z" fill="white"/>
<path d="M46.6304 0.164551C50.5435 0.164551 54.4022 0.164551 58.3152 0.164551C58.3152 4.38713 58.3152 8.66455 58.3152 12.8871C57.8804 15.1355 55.3804 16.8355 52.5 16.8355C49.5109 16.8355 46.9565 15.0258 46.6848 12.6129C46.6304 8.4452 46.6304 4.33229 46.6304 0.164551Z" fill="#DD6F84"/>
<path d="M35 0C38.913 0 42.7717 0 46.6848 0C46.6848 4.22258 46.6848 8.5 46.6848 12.7226C46.25 14.971 43.75 16.671 40.8696 16.671C37.8804 16.671 35.3261 14.8613 35.0543 12.4484C35 8.28065 35 4.16774 35 0Z" fill="white"/>
<path d="M23.3152 0.164551C27.2282 0.164551 31.0869 0.164551 35 0.164551C35 4.38713 35 8.66455 35 12.8871C34.5652 15.1355 32.0652 16.8355 29.1847 16.8355C26.1956 16.8355 23.6413 15.0258 23.3695 12.6129C23.3152 8.4452 23.3152 4.33229 23.3152 0.164551Z" fill="#DD6F84"/>
<path d="M11.6848 0.329102C15.5978 0.329102 19.4565 0.329102 23.3695 0.329102C23.3695 4.55168 23.3695 8.8291 23.3695 13.0517C22.9348 15.3001 20.4348 17.0001 17.5543 17.0001C14.5652 17.0001 12.0108 15.1904 11.7391 12.7775C11.6848 8.66459 11.6848 4.49684 11.6848 0.329102Z" fill="white"/>
<path d="M0 0.164551C3.91304 0.164551 7.77174 0.164551 11.6848 0.164551C11.6848 4.38713 11.6848 8.66455 11.6848 12.8871C11.25 15.1355 8.75 16.8355 5.86957 16.8355C2.82609 16.8355 0.271739 14.971 0 12.6129C0 8.4452 0 4.33229 0 0.164551Z" fill="#DD6F84"/>
<path d="M31.9565 50.9451C26.087 50.9451 20.2174 50.9451 14.3478 50.9451C14.3478 44.529 14.3478 38.1677 14.3478 31.7516C14.9457 28.2968 18.75 25.7742 23.1522 25.7742C27.6631 25.7742 31.5218 28.5709 31.9565 32.1355C31.9565 38.3871 31.9565 44.6935 31.9565 50.9451Z" fill="white"/>
</svg>
