<svg width="54" height="53" viewBox="0 0 54 53" fill="none" xmlns="http://www.w3.org/2000/svg">
<path d="M53.3077 37.619C52.4556 36.8207 50.9645 36.8739 49.8994 37.8319C49.7929 36.8207 49.1006 35.9691 48.1953 35.703C47.0769 35.3837 46.1716 36.0756 46.0651 36.1288C45.5858 36.7675 44.5207 37.8851 42.8698 38.6834C41.4852 39.3221 40.2071 39.4817 39.4615 39.535C39.4615 39.2156 39.4083 38.6302 39.0355 38.0448C38.1834 36.7142 36.3728 36.7675 36.2663 36.7675H22.8462C21.9941 35.9159 20.6627 34.745 18.7988 33.7871C16.8817 32.7759 15.1243 32.2969 13.8994 32.084H0V49.9131C3.19527 49.8599 6.39053 49.8067 9.63905 49.7535C17.787 52.6806 24.7101 53.0532 29.0237 52.9467C34.8817 52.7871 40.7929 52.6806 46.4911 48.689C50.5385 45.8683 52.7751 42.2492 53.9467 39.9607C54.1598 39.1092 53.8935 38.2044 53.3077 37.619Z" fill="white"/>
<path d="M35.8402 35.0645C37.9704 35.4902 39.6746 37.4062 39.6746 39.1093C39.6746 41.0252 38.6095 42.0897 37.5444 42.7283C35.3077 43.2073 31.7929 42.9944 28.3846 42.9412C24.6568 42.888 22.4201 42.9412 19.8639 42.7283" stroke="#A8192E" stroke-width="3" stroke-miterlimit="10" stroke-linecap="round" stroke-linejoin="round"/>
<path d="M52.2426 36.3418C51.8698 36.3418 50.858 36.4482 49.8994 37.1933C49.2071 37.7255 48.9941 38.3642 48.6213 38.8964C47.716 40.3334 46.2249 40.9188 45 41.451C42.3905 42.5687 40.0473 42.2494 39.0355 42.0897" stroke="#A8192E" stroke-width="3" stroke-miterlimit="10" stroke-linecap="round" stroke-linejoin="round"/>
<path d="M49.5266 14.6732C48.355 13.5556 46.8106 12.8637 45.3195 12.1186C44.6805 11.7993 44.4142 11.5864 44.6272 10.8413C45.6923 6.90291 43.7751 3.01775 40.0473 1.47434C36.4793 -0.0690811 32.4319 1.36789 30.355 4.77406C30.1953 5.04016 30.0355 5.30627 29.8757 5.57238C26.787 1.26145 23.5385 -0.069081 19.8639 1.31467C15.8166 2.85809 14.4852 5.78526 15.1243 11.4799C13.6864 12.225 12.2485 12.7573 11.0237 13.6088C6.76331 16.5892 6.81656 21.7516 11.0769 24.732C13.4734 26.3819 16.1361 27.0738 18.9586 27.0206C19.7041 27.0206 20.0769 27.2334 20.5562 27.8189C21.3018 28.8301 22.2604 29.8413 23.3254 30.5332C25.8817 32.1298 28.7574 32.5556 31.6864 32.0766C34.6154 31.704 37.2781 30.5864 38.8757 27.8721C39.2485 27.1802 39.6746 27.0738 40.3669 27.0738C43.8284 27.127 46.9704 26.2222 49.4734 23.7741C52.2426 21.1662 52.2959 17.2278 49.5266 14.6732ZM36.3728 13.9281C35.0947 15.099 33.6035 16.057 32.4852 17.3875C31.3669 18.718 30.0355 18.5051 28.6509 18.4519C28.4911 18.4519 28.3314 18.3455 28.1716 18.239C27.4793 17.9197 26.9467 17.4407 26.4675 16.8553C26.3077 16.6956 26.2012 16.4827 26.0414 16.2699C25.9349 16.2166 25.8817 16.1634 25.7751 16.057C25.2426 15.6844 24.7101 15.3651 24.1775 15.0458C23.3787 14.5668 22.2071 13.8749 22.2071 12.8105C22.2071 11.8525 23.3787 11.9057 24.0177 12.1718C25.0828 12.5976 25.8817 13.6088 26.5207 14.5668C26.787 14.9925 27 15.4183 27.3195 15.8441C27.4793 16.057 27.6923 16.2699 27.9586 16.3231C27.8521 16.057 27.7456 15.8441 27.6923 15.578C27.3728 14.9925 27.0532 14.4603 26.787 13.8749C26.5207 13.2895 26.1479 12.5976 25.9882 11.8525C25.8817 11.6396 25.8284 11.3735 25.8817 11.2138C25.8817 11.1606 25.8817 11.1074 25.8817 11.0009V10.9477C25.8817 10.7348 25.8817 10.522 25.9349 10.3623C25.9882 10.2026 26.1479 10.043 26.3609 10.043C26.5207 9.93652 26.7337 9.98974 26.8402 10.0962C27.3195 10.6284 27.639 11.2671 27.9586 11.9589C28.2248 12.5444 28.4379 13.183 28.5976 13.8217C28.7041 14.2474 28.7041 14.7264 28.7574 15.2054C28.7574 15.3651 28.8106 15.5248 28.8639 15.6844C28.9172 15.7376 28.9172 15.7909 28.9704 15.8441C29.0237 15.8973 29.0237 15.9505 29.0237 16.0037H29.0769C29.0237 14.9393 28.9172 13.8749 28.8106 12.8105C28.7574 12.1186 28.4911 11.4799 28.4379 10.7881C28.3846 10.1494 28.5444 9.29787 29.3432 9.29787C30.142 9.29787 30.6745 10.1494 30.6745 10.8945C30.6745 11.1606 30.6213 11.4799 30.568 11.746C30.4615 13.3427 30.3018 14.9925 30.142 16.5892C30.1953 16.6424 30.2485 16.6956 30.3018 16.7488C30.355 16.7488 30.4083 16.7488 30.4615 16.7488V16.6956C30.7811 15.7376 30.8876 14.7797 31.1538 13.8217C31.4201 12.6508 31.8461 11.4799 32.7515 10.6284C33.0177 10.3623 33.4438 9.98974 33.8698 10.2558C34.3491 10.522 34.1361 11.2671 34.0296 11.6928C33.9763 11.8525 33.9231 11.9057 33.8166 11.9589C33.071 13.4491 32.2722 14.8861 31.5266 16.3763C31.5266 16.4295 31.4734 16.536 31.4734 16.5892C32.2722 15.9505 32.7515 14.9925 33.3373 14.1942C34.0296 13.183 34.8817 12.225 36.1598 12.0122C36.3195 12.0122 36.4793 12.0122 36.5858 12.1186C36.7988 12.3315 36.7988 12.5444 36.7988 12.8637C36.7988 12.9169 36.7988 12.9169 36.7988 12.9701C36.7988 13.0234 36.8521 13.0766 36.8521 13.0766C36.7456 13.3427 36.5858 13.7152 36.3728 13.9281Z" fill="white"/>
</svg>
