<svg width="430" height="201" viewBox="0 0 430 201" fill="none" xmlns="http://www.w3.org/2000/svg">
<path d="M151.99 84.85C153.44 81.5086 154.208 77.9113 154.25 74.269C154.292 70.6268 153.606 67.0128 152.233 63.639C150.861 60.2651 148.828 57.1993 146.255 54.621C143.682 52.0428 140.62 50.0041 137.249 48.6244C133.878 47.2447 130.266 46.5517 126.623 46.5862C122.981 46.6206 119.382 47.3817 116.038 48.8249C112.693 50.268 109.671 52.3642 107.147 54.9906C104.623 57.6171 102.649 60.7208 101.34 64.12C98.6228 57.3915 93.3441 52.0179 86.665 49.1814C79.9859 46.3449 72.4535 46.2779 65.725 48.995C58.9964 51.7122 53.6229 56.9909 50.7864 63.67C47.9499 70.3491 47.8828 77.8815 50.6 84.61C35.5 88.27 24.6 98.61 24.6 110.76C24.6 126 41.66 138.35 62.7 138.35C64.24 138.35 65.75 138.28 67.24 138.15C71.3 148.81 84.78 156.64 100.79 156.64C116.8 156.64 130.29 148.81 134.34 138.15C135.84 138.28 137.34 138.35 138.89 138.35C159.89 138.35 176.98 126 176.98 110.76C176.99 98.91 166.58 88.72 151.99 84.85Z" fill="#A8192E"/>
<path d="M106.19 108.28L121.72 92.75C121.983 92.8459 122.26 92.8966 122.54 92.9C123.056 92.9 123.561 92.7469 123.99 92.4601C124.419 92.1734 124.754 91.7657 124.951 91.2888C125.149 90.8119 125.201 90.2871 125.1 89.7808C124.999 89.2745 124.751 88.8095 124.385 88.4445C124.02 88.0794 123.555 87.8309 123.049 87.7301C122.543 87.6294 122.018 87.6811 121.541 87.8787C121.064 88.0762 120.657 88.4108 120.37 88.84C120.083 89.2692 119.93 89.7738 119.93 90.29C119.933 90.5698 119.984 90.8471 120.08 91.11L104.66 106.52L113.04 86.4C113.627 86.3591 114.183 86.1211 114.617 85.7247C115.052 85.3282 115.34 84.7966 115.435 84.2159C115.529 83.6352 115.425 83.0397 115.138 82.5258C114.852 82.0119 114.4 81.6098 113.857 81.3848C113.313 81.1597 112.71 81.125 112.144 81.2861C111.578 81.4472 111.083 81.7948 110.74 82.2724C110.396 82.75 110.224 83.3297 110.251 83.9174C110.279 84.505 110.504 85.0663 110.89 85.51L102.5 105.68V83.83C103.027 83.5684 103.451 83.1362 103.701 82.6036C103.952 82.071 104.015 81.4693 103.881 80.8962C103.747 80.3231 103.423 79.8123 102.961 79.4466C102.5 79.0809 101.929 78.8819 101.34 78.8819C100.751 78.8819 100.18 79.0809 99.7187 79.4466C99.2574 79.8123 98.9332 80.3231 98.7989 80.8962C98.6645 81.4693 98.7278 82.071 98.9786 82.6036C99.2293 83.1362 99.6527 83.5684 100.18 83.83V105.68L91.79 85.51C92.1767 85.0661 92.4019 84.5044 92.4291 83.9163C92.4563 83.3281 92.2839 82.7481 91.9398 82.2704C91.5957 81.7926 91.1002 81.4452 90.5338 81.2846C89.9674 81.1241 89.3633 81.1597 88.8197 81.3858C88.2761 81.6119 87.8249 82.0151 87.5394 82.53C87.2538 83.0449 87.1508 83.6412 87.247 84.222C87.3432 84.8029 87.6329 85.3342 88.0691 85.7296C88.5054 86.1249 89.0625 86.3612 89.65 86.4L98.0199 106.52L82.61 91.11C82.6978 90.8453 82.745 90.5688 82.75 90.29C82.75 89.7738 82.5969 89.2692 82.3101 88.84C82.0233 88.4108 81.6157 88.0762 81.1388 87.8787C80.6619 87.6811 80.1371 87.6294 79.6308 87.7301C79.1245 87.8309 78.6594 88.0794 78.2944 88.4445C77.9294 88.8095 77.6808 89.2745 77.5801 89.7808C77.4794 90.2871 77.5311 90.8119 77.7286 91.2888C77.9262 91.7657 78.2607 92.1734 78.6899 92.4601C79.1191 92.7469 79.6237 92.9 80.1399 92.9C80.423 92.8966 80.7036 92.8459 80.97 92.75L96.49 108.28C98.07 108.14 99.69 108.07 101.34 108.07C102.99 108.07 104.61 108.14 106.19 108.28Z" fill="white"/>
<path d="M192.87 200.68H8.73999C6.63902 200.664 4.62853 199.823 3.14288 198.337C1.65723 196.851 0.815687 194.841 0.799988 192.74V8.62C0.815687 6.51903 1.65723 4.50857 3.14288 3.02292C4.62853 1.53727 6.63902 0.695692 8.73999 0.679993H192.87C194.974 0.682643 196.991 1.52035 198.478 3.0091C199.965 4.49785 200.8 6.51591 200.8 8.62V192.74C200.8 194.844 199.965 196.862 198.478 198.351C196.991 199.84 194.974 200.677 192.87 200.68ZM10.29 191.16H191.29V10.16H10.29V191.16Z" fill="#A8192E"/>
<path d="M230.83 103.76C230.402 103.235 229.833 102.843 229.19 102.63C228.565 102.401 227.906 102.279 227.24 102.27C226.867 102.271 226.495 102.312 226.13 102.39C225.754 102.477 225.391 102.611 225.05 102.79C224.722 102.963 224.438 103.209 224.22 103.51C223.958 103.927 223.859 104.426 223.942 104.911C224.025 105.396 224.284 105.834 224.67 106.14C225.26 106.541 225.908 106.851 226.59 107.06C227.36 107.31 228.19 107.57 229.08 107.82C229.953 108.072 230.789 108.435 231.57 108.9C232.35 109.366 233.007 110.01 233.49 110.78C234.054 111.724 234.332 112.811 234.29 113.91C234.313 115.04 234.074 116.159 233.59 117.18C233.14 118.084 232.494 118.876 231.7 119.5C230.875 120.126 229.938 120.587 228.94 120.86C226.514 121.528 223.942 121.451 221.56 120.64C220.259 120.165 219.068 119.43 218.06 118.48L221.59 114.61C222.095 115.279 222.754 115.818 223.51 116.18C224.258 116.543 225.079 116.731 225.91 116.73C226.321 116.732 226.73 116.685 227.13 116.59C227.52 116.504 227.894 116.359 228.24 116.16C228.557 115.982 228.828 115.732 229.03 115.43C229.236 115.12 229.341 114.753 229.33 114.38C229.34 114.071 229.275 113.764 229.141 113.486C229.007 113.207 228.808 112.965 228.56 112.78C227.948 112.346 227.274 112.009 226.56 111.78C225.78 111.51 224.93 111.23 224.02 110.96C223.139 110.707 222.291 110.355 221.49 109.91C220.693 109.451 220.01 108.818 219.49 108.06C218.933 107.162 218.661 106.116 218.71 105.06C218.685 103.957 218.933 102.865 219.43 101.88C219.887 100.989 220.536 100.211 221.33 99.6C222.15 98.9683 223.083 98.4998 224.08 98.22C225.122 97.9113 226.203 97.7564 227.29 97.76C228.537 97.7571 229.777 97.9391 230.97 98.3C232.159 98.6631 233.254 99.2808 234.18 100.11L230.83 103.76Z" fill="#A8192E"/>
<path d="M239.29 98.27H254.56V102.84H244.29V107.03H254.03V111.6H244.29V116.17H255.17V120.74H239.29V98.27Z" fill="#A8192E"/>
<path d="M260.49 98.27H267.22L276.77 113.91H276.84V98.27H281.84V120.74H275.29L265.48 104.74H265.42V120.74H260.49V98.27Z" fill="#A8192E"/>
<path d="M287.8 98.27H295.23C296.958 98.2615 298.681 98.463 300.36 98.87C301.89 99.2289 303.332 99.8921 304.6 100.82C305.822 101.745 306.806 102.948 307.47 104.33C308.221 105.972 308.583 107.765 308.53 109.57C308.575 111.229 308.233 112.876 307.53 114.38C306.871 115.734 305.922 116.925 304.75 117.87C303.563 118.828 302.206 119.554 300.75 120.01C299.201 120.502 297.585 120.749 295.96 120.74H287.86L287.8 98.27ZM292.8 116.17H295.29C296.367 116.181 297.441 116.064 298.49 115.82C299.411 115.615 300.28 115.22 301.04 114.66C301.777 114.109 302.362 113.379 302.74 112.54C303.179 111.525 303.391 110.426 303.36 109.32C303.382 108.325 303.169 107.338 302.74 106.44C302.344 105.654 301.773 104.97 301.07 104.44C300.334 103.888 299.499 103.484 298.61 103.25C297.634 102.975 296.624 102.841 295.61 102.85H292.69L292.8 116.17Z" fill="#A8192E"/>
<path d="M234.42 142.2C233.933 141.614 233.317 141.148 232.62 140.84C231.844 140.507 231.005 140.343 230.16 140.36C229.283 140.35 228.415 140.528 227.613 140.881C226.811 141.235 226.094 141.756 225.51 142.41C224.912 143.081 224.45 143.862 224.15 144.71C223.483 146.586 223.483 148.634 224.15 150.51C224.449 151.35 224.908 152.124 225.5 152.79C226.054 153.427 226.735 153.942 227.5 154.3C228.28 154.662 229.13 154.846 229.99 154.84C230.93 154.861 231.859 154.641 232.69 154.2C233.473 153.779 234.139 153.171 234.63 152.43L238.75 155.51C237.841 156.807 236.592 157.827 235.14 158.46C233.718 159.083 232.183 159.407 230.63 159.41C228.974 159.429 227.328 159.152 225.77 158.59C224.341 158.072 223.034 157.265 221.93 156.22C220.835 155.169 219.976 153.898 219.41 152.49C218.196 149.343 218.196 145.857 219.41 142.71C219.976 141.302 220.835 140.031 221.93 138.98C223.037 137.942 224.343 137.139 225.77 136.62C227.327 136.055 228.973 135.774 230.63 135.79C231.301 135.792 231.97 135.852 232.63 135.97C233.313 136.086 233.983 136.27 234.63 136.52C235.308 136.774 235.953 137.11 236.55 137.52C237.178 137.951 237.737 138.473 238.21 139.07L234.42 142.2Z" fill="#A8192E"/>
<path d="M242.6 136.36H247.6V144.74H257.22V136.36H262.22V158.84H257.22V149.13H247.6V158.84H242.6V136.36Z" fill="#A8192E"/>
<path d="M268.11 136.36H273.11V158.84H268.11V136.36Z" fill="#A8192E"/>
<path d="M279.05 136.36H285.78L295.34 151.98H295.4V136.36H300.35V158.84H293.88L284.07 142.84H284.01V158.84H279.01L279.05 136.36Z" fill="#A8192E"/>
<path d="M313.67 136.36H317.77L327.55 158.84H321.96L320.02 154.08H311.29L309.42 158.84H303.96L313.67 136.36ZM315.58 142.9L312.85 149.9H318.34L315.58 142.9Z" fill="#A8192E"/>
<path d="M333.29 140.74H326.88V136.36H344.66V140.74H338.24V158.84H333.24L333.29 140.74Z" fill="#A8192E"/>
<path d="M346.92 147.6C346.899 145.926 347.209 144.264 347.83 142.71C348.396 141.302 349.255 140.031 350.35 138.98C351.457 137.942 352.764 137.139 354.19 136.62C357.335 135.513 360.765 135.513 363.91 136.62C365.336 137.139 366.643 137.942 367.75 138.98C368.852 140.029 369.718 141.3 370.29 142.71C371.504 145.857 371.504 149.343 370.29 152.49C369.724 153.898 368.865 155.169 367.77 156.22C366.666 157.265 365.359 158.072 363.93 158.59C360.782 159.684 357.358 159.684 354.21 158.59C352.781 158.072 351.474 157.265 350.37 156.22C349.275 155.169 348.416 153.898 347.85 152.49C347.222 150.937 346.906 149.275 346.92 147.6ZM352.07 147.6C352.057 148.592 352.223 149.577 352.56 150.51C352.873 151.357 353.352 152.132 353.97 152.79C354.593 153.443 355.346 153.957 356.18 154.3C358.029 155.02 360.081 155.02 361.93 154.3C362.761 153.957 363.511 153.442 364.13 152.79C364.751 152.135 365.231 151.359 365.54 150.51C366.207 148.634 366.207 146.586 365.54 144.71C365.239 143.857 364.762 143.078 364.14 142.421C363.518 141.765 362.765 141.247 361.93 140.9C360.081 140.18 358.029 140.18 356.18 140.9C355.348 141.247 354.595 141.761 353.97 142.41C353.35 143.074 352.87 143.856 352.56 144.71C352.225 145.636 352.059 146.615 352.07 147.6Z" fill="#A8192E"/>
<path d="M373 136.36H378.39L381.98 150.78H382.04L386.74 136.36H391.34L396.01 151.16H396.07L399.85 136.36H404.85L398.29 158.84H393.87L388.87 143.28H388.81L383.81 158.84H379.55L373 136.36Z" fill="#A8192E"/>
<path d="M408.47 136.36H415.2L424.76 151.98H424.82V136.36H429.82V158.84H423.29L413.48 142.84H413.42V158.84H408.42L408.47 136.36Z" fill="#A8192E"/>
<path d="M219.91 174.46H224.91V192.36H234.09V196.91H219.91V174.46Z" fill="#A8192E"/>
<path d="M236.52 185.7C236.496 184.027 236.802 182.365 237.42 180.81C237.987 179.4 238.85 178.128 239.95 177.08C241.052 176.033 242.36 175.226 243.79 174.71C246.934 173.616 250.356 173.616 253.5 174.71C254.929 175.228 256.236 176.035 257.34 177.08C258.437 178.131 259.299 179.402 259.87 180.81C261.07 183.959 261.07 187.44 259.87 190.59C259.297 191.997 258.435 193.267 257.34 194.32C256.233 195.358 254.926 196.161 253.5 196.68C250.358 197.787 246.932 197.787 243.79 196.68C242.362 196.164 241.055 195.361 239.95 194.32C238.852 193.27 237.989 191.999 237.42 190.59C236.802 189.035 236.496 187.373 236.52 185.7ZM241.66 185.7C241.647 186.688 241.813 187.671 242.15 188.6C242.462 189.45 242.942 190.228 243.56 190.89C244.183 191.539 244.936 192.05 245.77 192.39C247.619 193.11 249.671 193.11 251.52 192.39C252.351 192.05 253.1 191.539 253.72 190.89C254.345 190.232 254.828 189.452 255.14 188.6C255.793 186.725 255.793 184.685 255.14 182.81C254.833 181.952 254.349 181.169 253.72 180.51C253.101 179.858 252.351 179.343 251.52 179C249.671 178.28 247.619 178.28 245.77 179C244.936 179.343 244.183 179.857 243.56 180.51C242.937 181.172 242.457 181.955 242.15 182.81C241.815 183.736 241.649 184.715 241.66 185.7Z" fill="#A8192E"/>
<path d="M262.2 174.46H267.85L273.41 189.19H273.47L279.12 174.46H284.42L275.15 196.91H271.15L262.2 174.46Z" fill="#A8192E"/>
<path d="M288.17 174.46H303.44V179.03H293.12V183.22H302.87V187.79H293.12V192.36H304.01V196.91H288.17V174.46Z" fill="#A8192E"/>
</svg>
