<svg xmlns="http://www.w3.org/2000/svg" viewBox="0 0 278.75 423.27"><defs><style>.cls-1{fill:#fff;}.cls-2{fill:#dbcec8;}.cls-3{fill:#fdd2bf;}.cls-4{fill:#e8af94;}.cls-5{fill:#3e3127;}.cls-6{fill:#24bacc;}.cls-7{fill:#19a5af;}.cls-8{fill:#eba42c;}.cls-9{fill:#d38a20;}.cls-10{fill:#f65143;}.cls-11{fill:#d32d24;}.cls-12{fill:#ff9797;}</style></defs><title>Asset 54</title><g id="Layer_2" data-name="Layer 2"><g id="Layer_1-2" data-name="Layer 1"><line class="cls-1" x1="210.24" y1="386.05" x2="192.07" y2="386.05"/><path class="cls-1" d="M182.21,285.17h2.62A19.85,19.85,0,0,1,204.68,305v72.27H182.21Z"/><rect class="cls-2" x="185.84" y="285.55" width="5.62" height="93.17"/><path class="cls-3" d="M185.56,378.17v18.76H186c9.8,0,17.74-8.4,17.74-18.76Z"/><path class="cls-4" d="M190.87,379.15v18.27a16.54,16.54,0,0,1-4,.49h-.43V379.15Z"/><rect class="cls-5" x="202.24" y="319.74" width="3" height="3.5"/><rect class="cls-5" x="202.24" y="329.27" width="3" height="8.44"/><rect class="cls-5" x="202.24" y="343.74" width="3" height="3.5"/><path class="cls-5" d="M186.27,399.27h-.43v-4h.43c8.68,0,15.75-7.52,15.75-16.76V349h4v29.48C206,390,197.16,399.27,186.27,399.27Z"/><path class="cls-5" d="M206,317.55h-4V304.31c0-9.24-7.07-16.76-15.75-16.76h-.43v-4h.43c10.89,0,19.75,9.31,19.75,20.76Z"/><rect class="cls-5" x="185.84" y="376.51" width="18.17" height="4"/><path class="cls-1" d="M93.85,375H72.91V307.57a18.51,18.51,0,0,1,18.5-18.51h2.44Z"/><path class="cls-3" d="M89.15,375.11V392.6h-.41c-9.14,0-16.55-7.83-16.55-17.49Z"/><path class="cls-5" d="M89.14,395.23h-.4c-10.22,0-18.54-8.74-18.54-19.49V357.39h.08c-.27-2.45-.23-9.83-.08-34.94V306.56c0-10.75,8.32-19.5,18.54-19.5h.4v4h-.4c-8,0-14.54,6.95-14.54,15.5v15.9c-.07,12.2-.14,30.32,0,34.05l0,.05v19.18c0,8.54,6.52,15.49,14.54,15.49h.4Z"/><rect class="cls-5" x="72.2" y="373.74" width="16.95" height="4"/><rect class="cls-6" x="95.76" y="276.7" width="81.84" height="123.65" transform="translate(-1.86 0.76) rotate(-0.32)"/><circle class="cls-7" cx="140.61" cy="348.58" r="8.58"/><circle class="cls-7" cx="129.6" cy="335.76" r="3.82"/><ellipse class="cls-7" cx="133.43" cy="363.27" rx="3.36" ry="4.35"/><rect class="cls-8" x="105.63" y="407.12" width="63.25" height="9.04" transform="translate(-2.27 0.76) rotate(-0.32)"/><rect class="cls-8" x="105.68" y="406.29" width="63.25" height="9.04"/><rect class="cls-8" x="104.74" y="407.73" width="63.25" height="7.44"/><rect class="cls-9" x="104.74" y="402.48" width="63.25" height="5.25"/><rect class="cls-5" x="105.09" y="399.9" width="64.07" height="4"/><rect class="cls-5" x="104.74" y="414.31" width="64.78" height="4"/><rect class="cls-5" x="125.37" y="403.41" width="4" height="14.53"/><rect class="cls-5" x="142.87" y="402.27" width="4" height="15.66"/><circle class="cls-5" cx="138.04" cy="409.67" r="1.51"/><path class="cls-1" d="M106.24,420.81H93.9a3.3,3.3,0,0,1-3.3-3.3V291a19.13,19.13,0,0,1,19.13-19.13H113v142A6.75,6.75,0,0,1,106.24,420.81Z"/><path class="cls-7" d="M173,400.49h0a33.68,33.68,0,0,1-33.67-33.67l-3.14-82.49,36.15-8.26Z"/><path class="cls-3" d="M119.64,189.51h38.24a0,0,0,0,1,0,0v71.72A16.89,16.89,0,0,1,141,278.12h-4.45a16.89,16.89,0,0,1-16.89-16.89V189.51a0,0,0,0,1,0,0Z"/><path class="cls-4" d="M159.79,236V247.5a102.8,102.8,0,0,1-38.24.77V236.79a102.23,102.23,0,0,0,38.24-.77Z"/><path class="cls-5" d="M141,280.67h-4.45a19.41,19.41,0,0,1-19.39-19.39V187.06h43.24v74.22A19.42,19.42,0,0,1,141,280.67Zm-18.84-88.61v69.22a14.41,14.41,0,0,0,14.39,14.39H141a14.41,14.41,0,0,0,14.4-14.39V192.06Z"/><path class="cls-5" d="M105.88,423.27H93.54a5.29,5.29,0,0,1-5.29-5.3V291.49a21.16,21.16,0,0,1,21.13-21.14h5.25v3.22c0,12.72.05,23,.09,32.36.08,17.6.14,31.5-.09,51.72v56.73a8.74,8.74,0,0,1-8.75,8.89Zm3.5-148.92a17.15,17.15,0,0,0-17.13,17.14V418a1.3,1.3,0,0,0,1.29,1.3h12.34a4.73,4.73,0,0,0,4.75-4.85v-56.8c.23-20.2.17-34.09.09-51.67,0-9.15-.08-19.22-.09-31.6Z"/><path class="cls-6" d="M165.54,271.88c0,7.45-12.25,13.48-27.38,13.48s-27.36-6-27.36-13.48c0-3.38,2.53-6.47,6.72-8.83,5,2.84,12.42,4.63,20.64,4.63s15.64-1.79,20.65-4.63C163,265.41,165.54,268.5,165.54,271.88Z"/><path class="cls-7" d="M166,270.84c0,7.45-12.26,13.48-27.38,13.48-1,0-2,0-2.93-.09a4.43,4.43,0,0,1,.12-.89,6.58,6.58,0,0,1,3.48-4.08,22.39,22.39,0,0,1,5.26-1.67,30.07,30.07,0,0,0,8.42-3,12.25,12.25,0,0,0,5.68-6.7,10.32,10.32,0,0,0,0-5.54l.57-.31C163.42,264.37,166,267.46,166,270.84Z"/><path class="cls-5" d="M138.53,286.83c-16.46,0-29.36-6.8-29.36-15.48,0-4,2.75-7.76,7.74-10.57l1-.55,1,.55c4.9,2.78,12.07,4.37,19.65,4.37s14.77-1.59,19.66-4.37l1-.55,1,.55c5,2.81,7.76,6.56,7.76,10.57C167.91,280,155,286.83,138.53,286.83Zm-20.59-22c-3.08,2-4.77,4.25-4.77,6.53,0,5.55,10.19,11.48,25.36,11.48s25.38-5.93,25.38-11.48c0-2.28-1.69-4.57-4.78-6.53-5.41,2.76-12.83,4.33-20.6,4.33S123.36,267.58,117.94,264.82Z"/><path class="cls-1" d="M171.21,418.47h12.34a3.29,3.29,0,0,0,3.29-3.29V288.69a19.12,19.12,0,0,0-19.13-19.13h0l-.9,62.24-2.35,79.78A6.74,6.74,0,0,0,171.21,418.47Z"/><path class="cls-2" d="M184.83,397.59V413.7a3.3,3.3,0,0,1-3.3,3.3H169.18a6.67,6.67,0,0,1-5.35-2.66A24,24,0,0,0,184.83,397.59Z"/><circle class="cls-2" cx="176.9" cy="406.22" r="3.37"/><circle class="cls-2" cx="172.58" cy="401.18" r="1.5"/><path class="cls-5" d="M182.58,420.48H170.24a8.74,8.74,0,0,1-8.75-8.94h0L164.25,298l.52-30.4h2a21.16,21.16,0,0,1,21.13,21.13V415.18A5.3,5.3,0,0,1,182.58,420.48Zm-17.09-8.85a4.75,4.75,0,0,0,4.75,4.85h12.34a1.3,1.3,0,0,0,1.29-1.3V288.69a17.16,17.16,0,0,0-15.17-17l-.46,26.38Z"/><circle class="cls-10" cx="65.65" cy="164.42" r="64.47"/><path class="cls-1" d="M72.26,227.4c-1.52.12-3.06.17-4.62.17a64.47,64.47,0,1,1,0-128.94c1.56,0,3.1.05,4.62.17a64.47,64.47,0,0,0,0,128.6Z"/><path class="cls-5" d="M67,229.88a67,67,0,1,1,67-67A67,67,0,0,1,67,229.88Zm0-128.94a62,62,0,1,0,62,62A62,62,0,0,0,67,100.94Z"/><circle class="cls-11" cx="210.46" cy="164.42" r="64.47"/><path class="cls-5" d="M211.78,229.88a67,67,0,1,1,67-67A67,67,0,0,1,211.78,229.88Zm0-128.94a62,62,0,1,0,62,62A62,62,0,0,0,211.78,100.94Z"/><rect class="cls-3" x="52.46" y="13.56" width="173.57" height="225.7" rx="80.39"/><path class="cls-1" d="M144.87,239c-2.07.14-4.16.22-6.28.22A86.79,86.79,0,0,1,51.8,152.47V100.35a86.79,86.79,0,0,1,86.79-86.79q3.18,0,6.28.23a86.78,86.78,0,0,0-80.5,86.56v52.12A86.79,86.79,0,0,0,144.87,239Z"/><path class="cls-4" d="M226,99.69v52.12a86.79,86.79,0,0,1-86.79,86.78h-.17V12.9h.17A86.79,86.79,0,0,1,226,99.69Z"/><path class="cls-5" d="M138.78,181.8a2.5,2.5,0,0,1-2.5-2.5V155.91a2.5,2.5,0,0,1,5,0V179.3A2.5,2.5,0,0,1,138.78,181.8Z"/><circle class="cls-1" cx="66.38" cy="133.49" r="10.2"/><circle class="cls-1" cx="81.54" cy="121.33" r="4.67"/><path class="cls-5" d="M126.52,148.14a2,2,0,0,1-2-2,14.66,14.66,0,0,0-29.32,0,2,2,0,0,1-4,0,18.66,18.66,0,0,1,37.32,0A2,2,0,0,1,126.52,148.14Z"/><path class="cls-5" d="M184.27,148.14a2,2,0,0,1-2-2,14.67,14.67,0,0,0-29.33,0,2,2,0,0,1-4,0,18.67,18.67,0,0,1,37.33,0A2,2,0,0,1,184.27,148.14Z"/><path class="cls-5" d="M143.75,241.76H132.1A83.55,83.55,0,0,1,48.64,158.3V94.52A83.55,83.55,0,0,1,132.1,11.06h11.65a83.55,83.55,0,0,1,83.46,83.46V158.3A83.55,83.55,0,0,1,143.75,241.76ZM132.1,16.06A78.55,78.55,0,0,0,53.64,94.52V158.3a78.55,78.55,0,0,0,78.46,78.46h11.65a78.55,78.55,0,0,0,78.46-78.46V94.52a78.55,78.55,0,0,0-78.46-78.46Z"/><path class="cls-10" d="M233,103.52C233,47.83,189.61,1.33,136.11,1.33S39.24,47.83,39.24,103.52H79.57L93.46,69.43l7.27,34.09h13.89V82.66l12.56,20.86h19.18l10.58-38L166,103.52Z"/><path class="cls-11" d="M235,104.18H168l-9-38.05-10.59,38.05H129.16l-3.93-6.52C155,73.53,156.62,31.55,153.63,3.32,199.74,11.27,235,54,235,104.18Z"/><path class="cls-12" d="M145,.14c-51.2,2.78-91.9,48.11-91.9,102.05H43.21C43.21,46.51,86.58,0,140.08,0,141.73,0,143.39.05,145,.14Z"/><path class="cls-5" d="M236.8,107.34H165.34L158.07,76.8l-8.49,30.54H127.09L118.44,93v14.36H100L94,79.22,82.58,107.34H38.06v-2.5A106.9,106.9,0,0,1,67.11,31.15c18.86-20,43.83-31,70.32-31s51.46,11,70.32,31a106.9,106.9,0,0,1,29.05,73.69Zm-67.51-5h62.48a101.81,101.81,0,0,0-27.66-67.76c-17.9-19-41.58-29.43-66.68-29.43S88.65,15.6,70.75,34.58a101.81,101.81,0,0,0-27.66,67.76H79.21L95.53,62.29l8.55,40.05h9.36V75l16.48,27.35h15.86l12.67-45.56Z"/><circle class="cls-11" cx="149.56" cy="43.5" r="10.2"/><circle class="cls-11" cx="136.58" cy="28.18" r="4.55"/><path class="cls-5" d="M139,213.86a23.14,23.14,0,0,1-23.12-23.12,2,2,0,0,1,4,0,19.12,19.12,0,1,0,38.23,0,2,2,0,0,1,4,0A23.14,23.14,0,0,1,139,213.86Z"/><ellipse class="cls-12" cx="61.8" cy="88.47" rx="1.57" ry="2.24" transform="translate(-28.07 28.73) rotate(-21.45)"/><ellipse class="cls-12" cx="72.44" cy="81.69" rx="1.27" ry="1.9" transform="translate(-24.86 32.16) rotate(-21.45)"/><ellipse class="cls-12" cx="67.1" cy="73.47" rx="5.95" ry="4.4" transform="translate(-23.42 114.78) rotate(-72.13)"/><ellipse class="cls-1" cx="19.87" cy="153.42" rx="1.57" ry="2.24" transform="translate(-54.74 17.9) rotate(-21.45)"/><ellipse class="cls-1" cx="30.51" cy="146.65" rx="1.27" ry="1.9" transform="translate(-51.52 21.32) rotate(-21.45)"/><ellipse class="cls-1" cx="25.17" cy="138.42" rx="5.95" ry="4.4" transform="translate(-114.3 119.89) rotate(-72.13)"/><path class="cls-1" d="M89,29.88A134.54,134.54,0,0,0,78.76,41.21a45.56,45.56,0,0,0-7.37,13c-.12.34-.85,1.12-1.38,1S69.37,54,69.5,53.6c2.42-6.66,6.7-12.32,11.33-17.38q2.1-2.22,4.28-4.32c.25-.29,3.23-3.6,3.63-3.21S89.24,29.61,89,29.88Z"/><path class="cls-1" d="M97.26,23.43l-5.21,3.82c-.07,0-.5-.19-.83-.64a1.49,1.49,0,0,1-.36-1l3.73-2.22,1.16-.58c.06,0,.71-.74,1-.3S97.32,23.38,97.26,23.43Z"/></g></g></svg>