<svg xmlns="http://www.w3.org/2000/svg" viewBox="0 0 228.37 431.59"><defs><style>.cls-1,.cls-10,.cls-16{fill:#fff;}.cls-2{fill:#dbcec8;}.cls-3{fill:#fdd2bf;}.cls-4{fill:#e8af94;}.cls-5{fill:#3e3127;}.cls-6{fill:#3c3127;}.cls-7{fill:#d59254;}.cls-13,.cls-18,.cls-19,.cls-8{fill:#b55c4e;}.cls-9{fill:#dda38c;}.cls-10,.cls-18{opacity:0.8;}.cls-11{fill:#dda18a;}.cls-12,.cls-14{fill:#f9b47a;}.cls-13,.cls-14{opacity:0.65;}.cls-15{fill:#fac69a;}.cls-16,.cls-19{opacity:0.5;}.cls-17{fill:#c2d9dd;}</style></defs><title>Asset 56</title><g id="Layer_2" data-name="Layer 2"><g id="Layer_1-2" data-name="Layer 1"><path class="cls-1" d="M106.29,311.32H127.7a22.49,22.49,0,0,1,22.49,22.49v93.81a0,0,0,0,1,0,0H83.8a0,0,0,0,1,0,0V333.81A22.49,22.49,0,0,1,106.29,311.32Z"/><path class="cls-2" d="M150.66,328.21V429.59s-13.52,1.57-12.84,0c7.79-18,6-116.22,6-116.22A19.33,19.33,0,0,1,150.66,328.21Z"/><line class="cls-1" x1="172.91" y1="416.71" x2="156.18" y2="416.71"/><path class="cls-1" d="M150.39,323.88h0c11.42,0,17.39,9.26,17.39,20.68v64.09H149.57Z"/><rect class="cls-2" x="150.45" y="324.23" width="5.17" height="85.74"/><path class="cls-3" d="M150.19,409.46v17.26h.4c9,0,16.33-7.73,16.33-17.26Z"/><path class="cls-4" d="M155.07,410.36v16.82a15.89,15.89,0,0,1-3.67.44H151V410.36Z"/><rect class="cls-5" x="165.42" y="355.69" width="3" height="3.5"/><rect class="cls-5" x="165.42" y="364.57" width="3" height="7.54"/><rect class="cls-5" x="165.42" y="377.5" width="3" height="3.5"/><path class="cls-5" d="M148.06,431.59h-8.94v-4h8.94a.39.39,0,0,0,.39-.39V327.39a11.87,11.87,0,0,0-11.86-11.86h-4.87v-4h4.87a15.88,15.88,0,0,1,15.86,15.86V427.2A4.4,4.4,0,0,1,148.06,431.59Z"/><path class="cls-5" d="M150.85,429h-.4v-4h.4c7.9,0,14.32-6.85,14.32-15.26V382.64h4v27.13C169.17,420.39,161,429,150.85,429Z"/><path class="cls-5" d="M169.17,353.68h-4V341.49c0-8.42-6.42-15.26-14.32-15.26h-.4v-4h.4c10.1,0,18.32,8.64,18.32,19.26Z"/><rect class="cls-5" x="150.45" y="407.77" width="16.72" height="4"/><line class="cls-1" x1="60.41" y1="416.71" x2="77.14" y2="416.71"/><path class="cls-1" d="M86.21,408.65h0A20.68,20.68,0,0,1,65.53,388v-64.1H86.21Z"/><rect class="cls-2" x="77.7" y="324.23" width="5.17" height="85.74" transform="translate(160.56 734.19) rotate(-180)"/><path class="cls-3" d="M83.13,409.46v17.26h-.41c-9,0-16.33-7.73-16.33-17.26Z"/><path class="cls-4" d="M78.24,410.36v16.82a15.91,15.91,0,0,0,3.68.44h.4V410.36Z"/><rect class="cls-5" x="64.9" y="355.69" width="3" height="3.5"/><rect class="cls-5" x="64.9" y="364.57" width="3" height="7.54"/><rect class="cls-5" x="64.9" y="377.5" width="3" height="3.5"/><path class="cls-5" d="M139.12,431.59H85.26a4.4,4.4,0,0,1-4.39-4.39V327.39a15.88,15.88,0,0,1,15.86-15.86h35v4h-35a11.87,11.87,0,0,0-11.86,11.86V427.2a.39.39,0,0,0,.39.39h53.86Z"/><path class="cls-5" d="M82.87,429h-.4c-10.1,0-18.33-8.64-18.33-19.26V382.64h4v27.13c0,8.41,6.43,15.26,14.33,15.26h.4Z"/><path class="cls-5" d="M68.14,353.68h-4V341.49c0-10.62,8.23-19.26,18.33-19.26h.4v4h-.4c-7.9,0-14.33,6.84-14.33,15.26Z"/><rect class="cls-5" x="66.14" y="407.77" width="16.72" height="4"/><path class="cls-6" d="M66.68,404.92a1,1,0,0,1-.69-.28,1,1,0,0,1,0-1.42L76,392.9a1,1,0,0,1,1.42,0,1,1,0,0,1,0,1.41L67.4,404.62A1,1,0,0,1,66.68,404.92Z"/><path class="cls-6" d="M70.78,395.43a1,1,0,0,1-.72-1.69l6-6.22a1,1,0,0,1,1.44,1.38l-6,6.23A1,1,0,0,1,70.78,395.43Z"/><path class="cls-2" d="M88.27,385.54a1.91,1.91,0,0,1,.22,1c0,.22,0,.44,0,.65a4.67,4.67,0,0,1,0,.52,8.87,8.87,0,0,0,0,1.46c.08.91,0,5.56,0,6,0,.71,0,2.86,0,3.22s0,2.16,0,2.65a5.61,5.61,0,0,1,0,.58c0,.84.15,1.67.12,2.5,0,.51,0,1,0,1.54,0,.13,0,.25,0,.37-.07,1.33,0,2.65,0,4,0,.27,0,.54,0,.81a4.51,4.51,0,0,0,0,.52,26,26,0,0,1,0,2.79,1.45,1.45,0,0,0,0,.36c.08.69,0,1.37,0,2.06,0,.22,0,.44,0,.66s0,.34,0,.51c0,.76,0,1.52,0,2.28a.76.76,0,0,0,0,.15,13.84,13.84,0,0,1-.07,2.41,6,6,0,0,0,0,1.47,1,1,0,0,1,0,.29c-.06.48,0,1-.07,1.46,0,0,0,.05,0,.07s-.31.16-.38.16a3.46,3.46,0,0,1-.87-.41,1.17,1.17,0,0,1,0-.2,1,1,0,0,0-.2-.58.57.57,0,0,1-.07-.35c.09-1,0-2,.06-2.93,0-.42,0-.84,0-1.25V414a10.24,10.24,0,0,1,0-1.1c0-.34,0-.68,0-1,0-.59,0-1.18,0-1.77v-6.69a.65.65,0,0,0,0-.14c-.12-.85-.07-3.44-.07-3.62,0-.76,0-1.51,0-2.28s0-1.51,0-2.27,0-1.32,0-2v-.3c0-1.07.09-5.48.08-6a.64.64,0,0,1,.09-.34c0-.1.07-.22.12-.32s.14-.15.18-.25a3,3,0,0,0,.08-.35.16.16,0,0,1,.21-.14C87.86,385.48,88.18,385.51,88.27,385.54Z"/><circle class="cls-2" cx="140.23" cy="413.61" r="7.89"/><circle class="cls-2" cx="131.72" cy="400.2" r="3.05"/><rect class="cls-3" x="103.46" y="284.05" width="25.96" height="47.59" rx="12.98"/><path class="cls-4" d="M128.14,300.91V314.8c-12.3-3.19-20.52-7.69-26-12.54v-.48Z"/><path class="cls-5" d="M116.21,333.65a15,15,0,0,1-15-15V297a15,15,0,0,1,30,0v21.64A15,15,0,0,1,116.21,333.65Zm0-47.6a11,11,0,0,0-11,11v21.64a11,11,0,0,0,22,0V297A11,11,0,0,0,116.21,286.05Z"/><path class="cls-5" d="M120.18,318.35a4.36,4.36,0,0,1-7.82-.49c-.06-.12.27-.56.8-.7a2,2,0,0,1,1-.08,2.57,2.57,0,0,0,3,1.73,2.91,2.91,0,0,0,1.2-.46l.35-.42c.17-.18.36-.35.61-.23C119.89,318,120.24,318.24,120.18,318.35Z"/><path class="cls-5" d="M73.51,302l-.17-8c0-.1.44-.36,1-.38s1,.24,1,.34L75,299.3l-.18,1.58c0,.1.2,1.25-.35,1.27S73.51,302.09,73.51,302Z"/><path class="cls-5" d="M76.73,293.41,71,301.55a1.13,1.13,0,0,1-1.07-.21c-.45-.32-.63-.84-.56-.94l4.17-5.21,1.31-1.48c.07-.1.75-1.38,1.2-1.06S76.8,293.31,76.73,293.41Z"/><path class="cls-5" d="M185.09,290.44l-6.67-11.05a1.17,1.17,0,0,1,1.72-1l4.1,7.61,1.13,2.29c.08.13,1.2,1.64.72,1.92S185.17,290.58,185.09,290.44Z"/><path class="cls-5" d="M181.52,276.05l-1.28,16.25a1.1,1.1,0,0,1-1.05.65,1.12,1.12,0,0,1-.94-.8l1.26-10.84.47-3.18c0-.2,0-2.56.57-2.52S181.54,275.85,181.52,276.05Z"/><path class="cls-5" d="M214.37,57.06,213.76,70a1.1,1.1,0,0,1-1,.53c-.55,0-1-.47-1-.62l.82-8.61.34-2.52c0-.16-.09-2,.47-2S214.38,56.9,214.37,57.06Z"/><path class="cls-5" d="M209.33,71l10.1-12.79a1.11,1.11,0,0,1,1.24,0,1.09,1.09,0,0,1,.33,1.19l-7.07,8.3-2.16,2.38c-.13.16-1.44,2.12-1.88,1.77S209.21,71.16,209.33,71Z"/><path class="cls-5" d="M51.24,219.11h0Z"/><path class="cls-5" d="M51.07,219.11h0Z"/><path class="cls-5" d="M48.92,292.17l1-8a1.31,1.31,0,0,1,1-.22c.55.07,1,.38.95.48l-1.1,5.27-.42,1.53c0,.1,0,1.27-.53,1.2S48.91,292.27,48.92,292.17Z"/><path class="cls-5" d="M53.39,284.16l-6.89,7.2c-.08.09-.63,0-1-.37s-.5-.92-.41-1l4.9-4.53,1.51-1.27c.08-.09,1-1.25,1.35-.87S53.47,284.07,53.39,284.16Z"/><path class="cls-5" d="M207.86,254.72l-7.44-3a1.26,1.26,0,0,1,.05-1.06c.2-.51.61-.83.7-.79l4.82,2.39,1.38.79c.09,0,1.23.31,1,.82S208,254.76,207.86,254.72Z"/><path class="cls-5" d="M201.24,248.37l5.22,8.49c.07.1-.14.61-.61.9a1.18,1.18,0,0,1-1.09.15L201.62,252l-.85-1.79c-.06-.1-1-1.23-.5-1.52S201.18,248.27,201.24,248.37Z"/><path class="cls-5" d="M16.67,226.11l3.95-7c.05-.09.57-.09,1.05.18h0c.48.27.74.72.69.8l-3,4.47-1,1.26c0,.09-.46,1.18-.94.91S16.62,226.19,16.67,226.11Z"/><path class="cls-5" d="M23.82,220.37l-9.09,4.08c-.11.05-.59-.23-.81-.73a1.16,1.16,0,0,1,0-1.1l6.25-2.35,1.88-.6c.11,0,1.35-.81,1.57-.3S23.93,220.32,23.82,220.37Z"/><path class="cls-7" d="M22.83,159.69s-19.44-38.3,11.81-83H51.49v83Z"/><path class="cls-8" d="M53.8,82.93v9.15c-3.1-.69-6.18-1.47-9.21-2.36A71.67,71.67,0,0,1,30.88,84.2q2.31-4.2,5.24-8.49A69.71,69.71,0,0,0,51.91,82.4Z"/><path class="cls-5" d="M53.94,162.19H21.24l-.69-1.37c-.21-.41-5.11-10.21-6.08-25.71C13.57,120.88,16,99,32.55,75.28l.74-1.06H53.94Zm-29.54-5H48.94v-78h-13C10.06,117.08,21.47,150.17,24.4,157.19Z"/><rect class="cls-1" x="2.5" y="162.46" width="45.05" height="37.17" rx="18.58"/><rect class="cls-3" x="9.95" y="165.85" width="34.16" height="28.18" rx="14.09"/><path class="cls-5" d="M29,201.06H21.08a21.09,21.09,0,0,1,0-42.17H29a21.09,21.09,0,0,1,0,42.17Zm-7.89-37.17a16.09,16.09,0,0,0,0,32.17H29a16.09,16.09,0,0,0,0-32.17Z"/><rect class="cls-9" x="180.82" y="162.46" width="45.05" height="37.17" rx="18.58"/><rect class="cls-3" x="188.94" y="168.06" width="28.81" height="23.77" rx="11.88"/><path class="cls-5" d="M207.29,201.06h-7.88a21.09,21.09,0,1,1,0-42.17h7.88a21.09,21.09,0,0,1,0,42.17Zm-7.88-37.17a16.09,16.09,0,1,0,0,32.17h7.88a16.09,16.09,0,0,0,0-32.17Z"/><rect class="cls-3" x="25.12" y="59.56" width="180.2" height="237.99" rx="90.1"/><path class="cls-1" d="M117.45,299c-1.15,0-2.31.07-3.47.07a90.1,90.1,0,0,1-90.1-90.1V151.15A90.1,90.1,0,0,1,114,61.05c1.16,0-5.68,0-4.53.07-48.16,1.81-75.64,41.43-75.64,90v57.79C33.81,257.54,69.29,297.16,117.45,299Z"/><path class="cls-5" d="M17.66,172.88A9,9,0,0,0,17.43,188a3.91,3.91,0,0,1-.54,2.61c-.64,1.22-2,1.75-2.27,1.53a13.8,13.8,0,0,1-5-7.46,13.27,13.27,0,0,1,.64-8.63,12.55,12.55,0,0,1,3-3.94,6.87,6.87,0,0,1,1.47-1.44c.77-.54,1.67-.78,2-.18C17.43,171.71,17.83,172.77,17.66,172.88Z"/><path class="cls-5" d="M213.58,168.45a14,14,0,0,1,.36,23.49c-.3.22-1.63-.32-2.27-1.54a3.89,3.89,0,0,1-.54-2.6,9.28,9.28,0,0,0,4-4.55,9.82,9.82,0,0,0,.38-6.39,10.41,10.41,0,0,0-1.62-3.7L212.6,172c-.58-.53-1.13-1.11-.79-1.72C212.49,169.09,213.28,168.26,213.58,168.45Z"/><path class="cls-4" d="M198.73,167.63a1.16,1.16,0,0,1,.21.74c0,.17,0,.34,0,.51a2.55,2.55,0,0,1,0,.39,7,7,0,0,0,.05,1.12c.08.69,0,4.24,0,4.6,0,.54-.05,2.18,0,2.46s0,1.65,0,2a3.38,3.38,0,0,1,0,.45c0,.64.15,1.27.13,1.91,0,.39,0,.78,0,1.18,0,.09,0,.18,0,.28-.06,1,0,2,0,3,0,.21,0,.42,0,.62s0,.26,0,.39a15.27,15.27,0,0,1,0,2.14,2.62,2.62,0,0,0,0,.28,13.71,13.71,0,0,1,0,1.57c0,.17,0,.34,0,.5a2.71,2.71,0,0,0,0,.4c0,.58,0,1.16,0,1.74a.37.37,0,0,0,0,.11,8.17,8.17,0,0,1-.07,1.85,3.51,3.51,0,0,0,0,1.12.81.81,0,0,1,0,.22c0,.37,0,.75-.06,1.12a.08.08,0,0,1,0,.05c0,.06-.31.13-.37.13a4.46,4.46,0,0,1-.87-.31.49.49,0,0,1-.05-.16.67.67,0,0,0-.2-.44.32.32,0,0,1-.07-.27c.09-.74,0-1.49.06-2.24,0-.32,0-.64,0-.95v-4.78a4.73,4.73,0,0,1,0-.84c0-.26,0-.53,0-.79l0-1.34v-5.23a22.06,22.06,0,0,1-.09-2.76l0-1.75c0-.58,0-1.16,0-1.74s0-1,0-1.51c0-.08,0-.15,0-.23.05-.82.09-4.19.09-4.6a.47.47,0,0,1,.08-.26c.06-.07.08-.17.13-.24s.13-.12.18-.19a2.13,2.13,0,0,0,.07-.27.17.17,0,0,1,.22-.1Z"/><path class="cls-1" d="M53.75,98.23a76,76,0,0,0-5.94,10.31c-.89,1.8-1.74,3.62-2.6,5.44a28.53,28.53,0,0,0-2.08,5.44c-.07.26-.64.9-1.18.82s-.84-1-.76-1.29a40,40,0,0,1,3.27-7.58c1.21-2.41,2.45-4.82,3.79-7.17.82-1.37,1.67-2.72,2.58-4,.12-.27,2-3.29,2.42-3S53.92,98,53.75,98.23Z"/><path class="cls-10" d="M38.71,127.94l1.14-5.64a1.54,1.54,0,0,1,1,0c.54.11.95.38.93.45l-1.16,3.69-.44,1.06c0,.07,0,.92-.55.81S38.69,128,38.71,127.94Z"/><path class="cls-5" d="M115.69,210.93a2.5,2.5,0,0,1-2.5-2.5V182.76a2.5,2.5,0,0,1,5,0v25.67A2.5,2.5,0,0,1,115.69,210.93Z"/><path class="cls-5" d="M114.6,302.67A92.7,92.7,0,0,1,22,210.07V152.28a92.6,92.6,0,0,1,185.2,0v57.79A92.7,92.7,0,0,1,114.6,302.67Zm0-238A87.7,87.7,0,0,0,27,152.28v57.79a87.6,87.6,0,0,0,175.2,0V152.28A87.7,87.7,0,0,0,114.6,64.68Z"/><path class="cls-7" d="M204.78,159.2c-16.55-20.57-25.94-51.35-27.79-77.68-25.48,5.4-51.25,10.83-77.3,10.13-16.71-.45-34-2.34-50.09-7C30,78.91,15.75,66.79,8.58,47.51L3.5,33S40.73,48.1,97.27,15,209.6,30.72,209.6,75.41l14.6-7.71s10,60.38-16.73,90.7"/><path class="cls-11" d="M178.18,93.61c-25.93,2.59-53.79,6.41-79.6,2.85-16.56-2.28-29.53-4-45-10.48,0,0,.95,0,.93,0,.45-.47-4.09-.93-3.62-1.38,15.66,4.4,32.4,6.18,48.61,6.63,25,.67,49.7-4.3,74.17-9.47q1.78,1.58,3.47,3.26"/><path class="cls-12" d="M175.23,79.35C149.75,84.76,124,90.18,97.93,89.48c-16.71-.45-34-2.34-50.09-7C28.28,76.74,14,64.62,6.82,45.35L1.74,30.8a52.14,52.14,0,0,0,11.38,2.65l15.8.09c-.14,0,2.41,10.62,2.67,11.64.94,3.71,3.51,7.19,5.85,10.23,0,0,18.72,32.49,138.12,24.34"/><path class="cls-8" d="M206.55,158.13l-1.69,1.8q-.88-1.1-1.74-2.25a107.35,107.35,0,0,0-99-148c53.76-24.58,104.53,21.87,104.53,64.5l14.6-7.71S233.32,127.81,206.55,158.13Z"/><path class="cls-5" d="M39.39,73.71l-3.28-2.2a2.92,2.92,0,0,1,1.11-1.66l2,1.81.52.62s.61.19.31.65A2.87,2.87,0,0,1,39.39,73.71Z"/><path class="cls-5" d="M59.8,79.46a51,51,0,0,1-16-3.55,1.08,1.08,0,0,1-.29-1.2,1.11,1.11,0,0,1,1-.66,48.39,48.39,0,0,0,10.08,3.24c1,.24,2,.46,3.09.63.2,0,2.5,0,2.48.56S60,79.47,59.8,79.46Z"/><path class="cls-5" d="M102.59,18.88a45.37,45.37,0,0,1-12.87,7,1.06,1.06,0,0,1-.93-.74A1.12,1.12,0,0,1,89.07,24a43.48,43.48,0,0,0,8.68-3.67c.83-.42,1.66-.87,2.46-1.36.16-.08,1.68-1.46,2-1S102.73,18.77,102.59,18.88Z"/><path class="cls-5" d="M108.77,15.64l-4.11,2.18s-.4-.3-.65-.79a1.82,1.82,0,0,1-.29-1l2.94-1.1.91-.23c.05,0,.56-.5.82,0A2.53,2.53,0,0,1,108.77,15.64Z"/><path class="cls-5" d="M32.72,91.47A19.45,19.45,0,0,0,31.43,98a1.45,1.45,0,0,1-1,.29,1.32,1.32,0,0,1-1-.34,21.31,21.31,0,0,1,1.08-4.77c.19-.44.39-.87.61-1.29,0-.08.21-1.13.72-.92S32.75,91.4,32.72,91.47Z"/><path class="cls-5" d="M35.93,90.83l-1.74,4.72a1.72,1.72,0,0,1-1-.14,1.75,1.75,0,0,1-.86-.55l1.55-3,.55-.85c0-.06.1-.8.62-.61S36,90.77,35.93,90.83Z"/><path class="cls-5" d="M213.31,106.24a149.09,149.09,0,0,1-7.12,52.13c-.21.62-1.16,2.1-1.68,1.92s-.43-1.92-.23-2.53a147,147,0,0,0,7.14-34.12c.33-3.42.57-6.85.64-10.29,0-.32,0-2.38-.05-4.35s0-3.87.25-3.88A1.08,1.08,0,0,1,213.31,106.24Z"/><path class="cls-5" d="M219,119.29a226.79,226.79,0,0,1-11.55,39.11c-.19.47-1.09,1.52-1.6,1.31s-.44-1.59-.26-2.05a225.36,225.36,0,0,0,8.83-25.59c.74-2.56,1.45-5.13,2.1-7.71.14-.48,1.15-6.26,1.68-6.16A1,1,0,0,1,219,119.29Z"/><path class="cls-7" d="M173.2,288.14c-12.22,7.78-26.74,14.29-42.3,14.29l-29.81,1c-15.56,0-30.08-7.51-42.3-15.29C33,271.76,19.56,241.55,23.52,211.29l1.66-12.74S50.54,231,79.48,233.93c9.51.95.52-20.13,36.34-20.05h.35c30.19,0,26.83,21,36.34,20.05,28.94-2.91,54.3-35.38,54.3-35.38l1.66,12.74C212.43,241.55,199,271.76,173.2,288.14Z"/><path class="cls-1" d="M118.32,302.21c-1.15.05-4.31,1.07-5.47,1.07-10.49,0-19.35-1-29.95-1.46a78.51,78.51,0,0,1-25.25-10.44C31.9,275,18.42,244.79,22.38,214.53L24,201.79s2.07,2.37,8.72,8.74C17.13,264.12,70.53,300.41,118.32,302.21Z"/><path class="cls-8" d="M171,290.5a78.52,78.52,0,0,1-42.3,12.29H116.28a78.52,78.52,0,0,0,42.3-12.29c25.75-16.38,39.23-46.59,35.27-76.85l-.13-1a121.91,121.91,0,0,0,10.93-11.76l1.66,12.74C210.27,243.91,196.79,274.12,171,290.5Z"/><path class="cls-8" d="M172.66,43a59.88,59.88,0,0,0-29.33-21.19c-.43-.14-1.43-.93-1.28-1.46s1.45-.59,1.9-.44a61.51,61.51,0,0,1,21.57,12.92,57.66,57.66,0,0,1,5.07,5.42c.17.16,1.15,1.26,2,2.38s1.58,2.29,1.36,2.44A1,1,0,0,1,172.66,43Z"/><circle class="cls-8" cx="192.55" cy="60.67" r="7.73"/><circle class="cls-12" cx="36.26" cy="51.07" r="7.73"/><ellipse class="cls-13" cx="183.32" cy="72.06" rx="3.08" ry="2.25"/><ellipse class="cls-13" cx="180.61" cy="57.44" rx="1.54" ry="1.12"/><ellipse class="cls-14" cx="48.61" cy="55.59" rx="2.13" ry="1.56" transform="matrix(0.51, -0.86, 0.86, 0.51, -23.95, 69.29)"/><ellipse class="cls-14" cx="48.73" cy="47.44" rx="2.69" ry="1.97" transform="translate(-16.87 65.37) rotate(-59.52)"/><path class="cls-4" d="M38.6,149.07C51.37,134,72.08,125,93,125.38c5.62.1,12.1,1.37,14.76,6a12.12,12.12,0,0,1,1.39,5.42c.15,2.67-.22,5.6-2.28,7.46-1.86,1.67-4.66,2.08-7.28,2.14-9.93.23-19.64-3.28-29.57-3.42-10.7-.15-20.89,3.59-30.75,7.28"/><path class="cls-7" d="M38.62,143.3c13.15-16.82,31.53-27,52.88-26.72,5.74.07,12.35,1.42,15,6.5a14.23,14.23,0,0,1,1.38,6c.14,3-.26,6.22-2.38,8.3-1.91,1.88-4.78,2.35-7.46,2.44-10.14.34-20-3.49-30.18-3.57-10.92-.08-16.68,4.29-26.78,8.46"/><path class="cls-8" d="M37.52,143.29l.64,1.27c10.11-4.18,20.54-8.42,31.47-8.33,10.14.08,20,3.9,30.17,3.57,2.68-.09,5.55-.56,7.46-2.45s2.45-4.93,2.39-7.74c-2.88,2.12-6.8,4.28-10.42,4.26a61.64,61.64,0,0,1-14.54-1.41,74.25,74.25,0,0,0-33.27-.32C44,136.52,42.83,136.5,37.52,143.29Z"/><path class="cls-5" d="M36.26,142.52A11.43,11.43,0,0,1,38.5,139c.65-.66,1.23-1.39,1.84-2.09a15,15,0,0,1,1.51-1.57c.78-.69,1.52-1.43,2.28-2.13s1.54-1.38,2.29-2.09a20.47,20.47,0,0,1,1.64-1.34c.73-.55,1.58-1.24,2.59-1.92s2.1-1.42,3.28-2.14,2.42-1.43,3.67-2.09,2.5-1.28,3.71-1.82l3.35-1.45c2.06-.75,3.55-1.31,4-1.46l3-.94c1.24-.38,2.68-.69,4.06-1,2.78-.61,5.41-1.07,6.17-1.2.4-.09,1.17-.21,2.13-.35s2.11-.18,3.27-.27,2.35-.1,3.37-.13,1.87-.07,2.41-.06a16.76,16.76,0,0,1,2.55.13,39.61,39.61,0,0,1,5.49.93,13.58,13.58,0,0,1,5.33,2.57,12.24,12.24,0,0,1,4.12,6.44,13.81,13.81,0,0,1,.37,1.71,29.64,29.64,0,0,1,.18,4.51,14.87,14.87,0,0,1-.91,4.71,9.06,9.06,0,0,1-3.21,4.19,11.25,11.25,0,0,1-4.66,1.81,20.19,20.19,0,0,1-3.66.27l-2.24,0a55.53,55.53,0,0,1-11.7-1.56,14,14,0,0,0-1.49-.3c-2.81-.31-5.52-1-8.26-1.33l-2.62-.32c-.68,0-1.36-.16-2-.15a50,50,0,0,0-9,.63,5.4,5.4,0,0,0-.58.11c-3.14.77-6.29,1.38-9.43,2.24a30.2,30.2,0,0,0-5.6,2,6.52,6.52,0,0,1-1.09.47c-1.91.59-3.76,1.37-5.64,2.1a2.86,2.86,0,0,1-.28.07c-.31.1-.91-.47-1-.62a8.1,8.1,0,0,1,.73-2.65,5.76,5.76,0,0,1,.72-.44,6.3,6.3,0,0,0,2.06-1.35,3.1,3.1,0,0,1,1.26-.7c3.87-1.28,7.71-2.83,11.74-3.84,1.72-.41,3.43-.9,5.19-1.21a47.88,47.88,0,0,1,13.42-.7c4.44.4,8.73,1.28,12.93,2,1.49.27,3,.54,4.4.84a33.09,33.09,0,0,0,4.08.57c1.17.1,2.33.14,3.49.13a22.57,22.57,0,0,0,3.35-.21,7.68,7.68,0,0,0,3.81-1.45,5.82,5.82,0,0,0,1.88-3.34,14.83,14.83,0,0,0,.27-3.81,15.76,15.76,0,0,0-.57-3.81,8.37,8.37,0,0,0-4.64-5.14,5.11,5.11,0,0,0-.48-.22,24.93,24.93,0,0,0-3.23-.84,30.57,30.57,0,0,0-4.43-.51c-3-.06-5.86,0-6.2.09-1.51.12-3,.24-4.54.49-.75.12-1.5.21-2.26.34l-2.24.43a83.14,83.14,0,0,0-8.78,2.4c-1.25.44-2.49.92-3.73,1.4l-3.62,1.66c-.35.18-.69.38-1,.54A66.13,66.13,0,0,0,42,140.45a4.16,4.16,0,0,1-1.08.84,13,13,0,0,0-1.07.76c-.34.21-.65.26-1,.5s-.7.65-1.05,1-.68.35-.79.12S36.36,142.77,36.26,142.52Z"/><path class="cls-4" d="M187.1,149c-12.76-15-33.47-24.06-54.38-23.69-5.61.1-12.09,1.37-14.75,6a12.12,12.12,0,0,0-1.39,5.42c-.15,2.67.21,5.6,2.27,7.46,1.86,1.67,4.67,2.08,7.29,2.14,9.93.23,19.64-3.28,29.57-3.42,10.7-.15,20.89,3.59,30.75,7.28"/><path class="cls-7" d="M188.09,143.24c-13.15-16.82-31.53-27-52.88-26.72-5.74.07-12.35,1.42-15,6.5a14.22,14.22,0,0,0-1.37,6c-.14,3,.26,6.22,2.38,8.3,1.91,1.88,4.78,2.35,7.46,2.44,10.14.34,20-3.49,30.18-3.57,10.92-.08,16.67,4.29,26.77,8.46"/><path class="cls-8" d="M188.19,143.23l-.64,1.27c-10.11-4.18-20.54-8.42-31.47-8.33-10.14.08-20,3.9-30.17,3.57-2.68-.09-5.56-.56-7.46-2.45s-2.46-4.93-2.39-7.74c2.88,2.12,6.8,4.28,10.42,4.26A61.55,61.55,0,0,0,141,132.4a74.3,74.3,0,0,1,33.28-.32C181.71,136.46,182.88,136.44,188.19,143.23Z"/><path class="cls-5" d="M187.61,143.92a12.58,12.58,0,0,1-2.94-2.66c-.6-.65-1.26-1.24-1.88-1.86s-1-.93-1.51-1.41c-.7-.7-1.4-1.4-2.15-2s-1.55-1.21-2.33-1.79c-.35-.29-.91-.68-1.61-1.19s-1.51-1.15-2.46-1.78-2-1.35-3.08-2-2.27-1.38-3.44-2-2.35-1.27-3.48-1.81l-3.14-1.45c-1.93-.75-3.34-1.33-3.78-1.48l-2.87-1c-1.18-.39-2.54-.7-3.85-1.06a42.16,42.16,0,0,0-5.87-1.06c-.39,0-1.12-.11-2-.23s-2-.17-3.1-.27-2.22-.1-3.19-.13-1.78,0-2.25,0l-2.28.14A16,16,0,0,0,122,122a7.28,7.28,0,0,0-2.66,4.09c-.11.4-.17.83-.25,1.26a13.59,13.59,0,0,0,.36,7,4.8,4.8,0,0,0,1.72,2.21,7.83,7.83,0,0,0,2.93,1.11,16.44,16.44,0,0,0,3,.3,16.85,16.85,0,0,0,2,0c3.65-.26,7.35-.72,11.13-1.3a14.27,14.27,0,0,0,1.48-.24,80,80,0,0,1,8.47-1.45c.91-.15,1.86-.2,2.8-.28l2.2-.1a43.79,43.79,0,0,1,9.78.58l.62.1a41.5,41.5,0,0,1,9.88,2.72,58.38,58.38,0,0,0,5.78,2,6.81,6.81,0,0,1,1.15.4c1.83.87,3.72,1.62,5.58,2.42.09,0,.16.1.25.15.29.15.32,1,.25,1.13a8.36,8.36,0,0,1-2.38,1.36,6.07,6.07,0,0,1-.82-.19,6,6,0,0,0-2.4-.45,3.12,3.12,0,0,1-1.37-.35,84,84,0,0,0-11.2-4,48.22,48.22,0,0,0-4.87-1.1,43.72,43.72,0,0,0-12.29-.65c-4.13.37-8.29,1.2-12.56,2-1.51.27-3,.5-4.57.64s-2.88.29-4.34.4c-1.25.1-2.52.16-3.78.18a24.94,24.94,0,0,1-3.91-.2,11.3,11.3,0,0,1-5.67-2.29,9.57,9.57,0,0,1-3.14-5.45,18.76,18.76,0,0,1-.33-4.8,19.5,19.5,0,0,1,.76-4.72,11.56,11.56,0,0,1,2.55-4.42,13.4,13.4,0,0,1,4-2.91l.61-.29a17.33,17.33,0,0,1,3.84-1.36,29.3,29.3,0,0,1,5.08-.68,61.66,61.66,0,0,1,6.64.16c1.62.11,3.23.21,4.83.46.8.11,1.6.2,2.4.33l2.37.48a68.05,68.05,0,0,1,9.3,2.55l3.93,1.51L165,122c.37.19.75.36,1.11.56a78.75,78.75,0,0,1,11.45,7.35,73.57,73.57,0,0,1,8.77,8,4.84,4.84,0,0,1,.82,1.18c.18.37.46.83.63,1.22s.16.71.34,1.09.53.82.77,1.23.22.73,0,.79S187.87,143.88,187.61,143.92Z"/><path class="cls-15" d="M51.74,267.42a76.33,76.33,0,0,1-15.93-24.79c-.13-.34-.06-1.39.46-1.58s1.27.52,1.4.85a74.42,74.42,0,0,0,9,17.07c1.07,1.57,2.2,3.12,3.4,4.61.11.14.9,1,1.62,1.79s1.4,1.64,1.2,1.83C52.52,267.59,52,267.69,51.74,267.42Z"/><path class="cls-15" d="M67,274.91a51.91,51.91,0,0,1-17.41-16.13,1.28,1.28,0,0,1,.25-1.43,1.29,1.29,0,0,1,1.41.32,50.17,50.17,0,0,0,10.16,11.56c1.15,1,2.34,2,3.59,2.86.11.08.91.53,1.65,1s1.43,1,1.29,1.2C67.63,274.78,67.2,275.06,67,274.91Z"/><path class="cls-5" d="M163.64,243.27l-4.26-6.79c0-.08.19-.54.66-.83s1-.32,1-.23l2.5,4.76.65,1.45c.06.08.82,1,.36,1.26S163.7,243.36,163.64,243.27Z"/><path class="cls-5" d="M162,234.25l-.74,9.94c0,.12-.48.41-1,.37s-1-.39-1-.52l.9-6.61.36-1.94c0-.12-.06-1.57.49-1.53S162,234.13,162,234.25Z"/><path class="cls-5" d="M146.92,289.26l-4.26-6.79c0-.09.19-.54.66-.84a1.29,1.29,0,0,1,1-.23l2.5,4.76.65,1.46c.05.08.82,1,.35,1.26S147,289.34,146.92,289.26Z"/><path class="cls-5" d="M145.28,280.24l-.74,9.94c0,.12-.48.41-1,.37s-1-.4-1-.52l.9-6.61.36-1.94c0-.13-.06-1.57.49-1.53S145.29,280.12,145.28,280.24Z"/><path class="cls-5" d="M39.86,227.69l.93-8c0-.1.48-.31,1-.24s1,.37,1,.47l-1,5.28-.4,1.54c0,.1,0,1.27-.52,1.2S39.85,227.79,39.86,227.69Z"/><path class="cls-5" d="M44.22,219.63l-6.79,7.29c-.09.09-.63,0-1-.36s-.51-.92-.43-1L40.81,221l1.49-1.29c.09-.09.94-1.26,1.34-.89S44.3,219.54,44.22,219.63Z"/><ellipse class="cls-1" cx="75.04" cy="277.61" rx="1.57" ry="2.24"/><circle class="cls-1" cx="86.95" cy="287.9" r="1.71"/><path class="cls-1" d="M70.33,290.62a6.59,6.59,0,0,1,12.36,4.57"/><path class="cls-1" d="M44.5,211.31a1.61,1.61,0,0,1,.82.37,4.26,4.26,0,0,0,.49.34,3.09,3.09,0,0,1,.37.26,8.76,8.76,0,0,0,1.07.77c.68.45,3.93,3,4.27,3.27.51.38,2,1.54,2.34,1.67s1.58,1.09,2,1.29a4.08,4.08,0,0,1,.44.28c.6.44,1.33.66,1.94,1.07.38.26.78.48,1.17.71a2.69,2.69,0,0,1,.29.16c1,.65,2,1.11,3.08,1.67l.64.32a3,3,0,0,0,.4.2c.76.32,1.51.66,2.24,1a1.85,1.85,0,0,0,.29.13,17.39,17.39,0,0,1,1.71.61l.55.19a3.45,3.45,0,0,0,.42.14c.65.16,1.28.4,1.93.54l.13,0a17.61,17.61,0,0,1,2,.53,4.64,4.64,0,0,0,1.27.22,1.06,1.06,0,0,1,.25,0,3.48,3.48,0,0,0,1.14.11h0c.05,0,.16.3.17.36a2.31,2.31,0,0,1-.28.9.56.56,0,0,1-.21.06,1.28,1.28,0,0,0-.6.17.43.43,0,0,1-.34,0c-.91-.21-1.78-.35-2.66-.54-.37-.1-.75-.18-1.12-.27a39.62,39.62,0,0,1-5.43-1.78,9.47,9.47,0,0,1-.91-.43c-.27-.15-.56-.28-.84-.41l-1.46-.68c-.69-.31-1.34-.69-2-1-1.11-.62-2.2-1.25-3.27-1.93a.34.34,0,0,0-.11-.07A23.44,23.44,0,0,1,54,219.91c-.57-.39-1.15-.76-1.71-1.16s-1.12-.78-1.66-1.2-1-.7-1.44-1.06l-.22-.15c-.83-.67-3.86-3.08-4.24-3.37a.58.58,0,0,1-.18-.26c0-.09-.11-.18-.15-.27a2.86,2.86,0,0,0-.07-.28,1.46,1.46,0,0,0-.2-.25.18.18,0,0,1,0-.25C44.2,211.6,44.42,211.37,44.5,211.31Z"/><path class="cls-16" d="M53.54,213.42a.6.6,0,0,1,.53.07,2.75,2.75,0,0,0,.3.14,1.75,1.75,0,0,1,.24.11,2.75,2.75,0,0,0,.66.34c.43.17,2.39,1.48,2.59,1.6a12.27,12.27,0,0,0,1.4.84c.19.06.93.56,1.16.65a1.08,1.08,0,0,1,.26.14c.35.24.8.3,1.15.53s.44.26.67.39a1.29,1.29,0,0,1,.16.09c.55.38,1.17.63,1.74,1l.35.2a1,1,0,0,0,.22.13,7.33,7.33,0,0,1,1.23.67.51.51,0,0,0,.16.09,7.84,7.84,0,0,1,.93.43c.1,0,.19.1.29.15a2.53,2.53,0,0,0,.23.12c.36.12.69.3,1,.45l.07,0a3.51,3.51,0,0,1,1.08.53,1.46,1.46,0,0,0,.69.26.25.25,0,0,1,.14,0,3.63,3.63,0,0,0,.66.31l0,0s0,.32-.05.38a5.11,5.11,0,0,1-.49.75s-.08,0-.11,0a.39.39,0,0,0-.35.08.15.15,0,0,1-.19,0c-.44-.26-.93-.39-1.38-.62-.19-.09-.4-.16-.6-.24-1-.42-2-.88-2.91-1.35a3,3,0,0,1-.48-.3,2.56,2.56,0,0,0-.45-.27l-.8-.41-1.12-.61-1.85-1.07a.15.15,0,0,0-.07,0,9.83,9.83,0,0,1-1.62-.87c-.33-.19-.68-.37-1-.57s-.67-.38-1-.6-.58-.34-.87-.51l-.13-.07c-.44-.32-2.33-1.5-2.56-1.64a.2.2,0,0,1-.1-.16c0-.07-.06-.12-.08-.19a1.5,1.5,0,0,0,0-.22.53.53,0,0,0-.11-.15.21.21,0,0,1,0-.22Z"/><path class="cls-15" d="M34.48,100.57A39.49,39.49,0,0,0,27,116.36a1.13,1.13,0,0,1-1.14.57,1.1,1.1,0,0,1-.81-1,41.36,41.36,0,0,1,4.77-11.31c.66-1,1.34-2,2.09-2.93.09-.2,1.55-2.42,2-2.06S34.61,100.4,34.48,100.57Z"/><ellipse class="cls-4" cx="154.44" cy="184.85" rx="30.26" ry="28.95"/><circle class="cls-1" cx="154.5" cy="177.4" r="30.26"/><rect class="cls-5" x="149.03" y="160.69" width="12.6" height="31.49" rx="6.3"/><circle class="cls-1" cx="161.16" cy="170.91" r="5.91"/><path class="cls-17" d="M184.77,178.06a30.27,30.27,0,1,1-60.53,0c0-.93,0-1.84.13-2.74a30.26,30.26,0,0,0,60.26,0A24.76,24.76,0,0,1,184.77,178.06Z"/><path class="cls-5" d="M126.66,180a28.27,28.27,0,0,0,53,11.68,27.85,27.85,0,0,0,3.17-9.84,9.36,9.36,0,0,1,.29-1,8,8,0,0,1,.49-1.2c.41-.79.94-1.5,1.49-1.5s1,.73,1.34,1.64a8.07,8.07,0,0,1,.35,1.41,4.1,4.1,0,0,1,0,1.16,32,32,0,0,1-18,24.37c-.6.27-1.18.57-1.79.81l-1.85.65-.92.32-1,.24-1.9.46c-.64.13-1.29.19-1.93.29a15.76,15.76,0,0,1-1.94.21,29.71,29.71,0,0,1-3.89,0A30.91,30.91,0,0,1,139,205.29a30.28,30.28,0,0,1-6.93-5.82,29.85,29.85,0,0,1-4.95-7.5,27.53,27.53,0,0,1-2.57-7.11c-.69-3.39-.47-6.71,0-6.69A2.07,2.07,0,0,1,126.66,180Z"/><ellipse class="cls-4" cx="77.1" cy="183.38" rx="30.61" ry="29.34"/><circle class="cls-1" cx="77.04" cy="175.78" r="30.61"/><path class="cls-17" d="M46.43,176.45a30.61,30.61,0,1,0,61.22,0c0-.94,0-1.86-.13-2.78a30.6,30.6,0,0,1-60.95,0A25.62,25.62,0,0,0,46.43,176.45Z"/><path class="cls-5" d="M108.21,178.69a32.66,32.66,0,0,1-19.78,27.9,32.83,32.83,0,0,1-33.82-5.17,32.27,32.27,0,0,1-11.22-20.61,4.1,4.1,0,0,1,0-1.16,9.07,9.07,0,0,1,.36-1.43c.31-.92.78-1.66,1.33-1.66s1.09.72,1.49,1.52a8.18,8.18,0,0,1,.49,1.22,7.12,7.12,0,0,1,.29,1A28.8,28.8,0,0,0,63,202.6c.54.26,1.06.55,1.61.79l1.67.63.83.32.86.24,1.73.47c.58.13,1.18.2,1.77.31a15.08,15.08,0,0,0,1.77.25,26.93,26.93,0,0,0,3.59.12,28.71,28.71,0,0,0,13.77-3.79,29.62,29.62,0,0,0,11.87-12.09,32.7,32.7,0,0,0,2.39-6.86c.76-3.22.91-6.42,1.5-6.43A1.94,1.94,0,0,1,108.21,178.69Z"/><path class="cls-5" d="M111.1,248.37h-5.52a2,2,0,1,1,0-4h5.52a37.8,37.8,0,0,0,21.62-6.75,2,2,0,0,1,2.28,3.29A41.84,41.84,0,0,1,111.1,248.37Z"/><path class="cls-18" d="M50.88,223.48a3.6,3.6,0,0,1,1.66.92c.31.28.67.5,1,.76a7.38,7.38,0,0,1,.77.58,14.7,14.7,0,0,0,2.23,1.64c.73.44,2.82,2,5,3.29a47.08,47.08,0,0,0,4.67,2.53,32,32,0,0,0,3,1.23,17.13,17.13,0,0,0,2.65.78,45.35,45.35,0,0,0,4.81.89c.35,0,.7.06,1,.1a6.53,6.53,0,0,0,3.71-.82,4.32,4.32,0,0,0,1.58-1.47l.31-.49c1.23-1.79,1.64-4.47,3.13-6.95.3-.49.61-1,1-1.42l.65-.87a15.77,15.77,0,0,1,4.19-4c.2-.16.44-.27.63-.44a15,15,0,0,1,3.71-2.13,9.75,9.75,0,0,1,1.31-.48c.34-.13.7-.18,1-.3,1.44-.48,2.81-.78,4.24-1.21a1.2,1.2,0,0,0,.27-.08,19.18,19.18,0,0,1,4.65-1,17.88,17.88,0,0,0,2.89-.52,2.43,2.43,0,0,1,.59-.1c1,0,2-.08,3,0,0,0,.09,0,.14,0s.31.63.31.76a9.44,9.44,0,0,1-.8,1.73,1.58,1.58,0,0,1-.37.11,1.7,1.7,0,0,0-1,.44.83.83,0,0,1-.6.2,27.3,27.3,0,0,0-5.35.85c-.76.16-1.52.4-2.29.61l-2.91.8-1.48.4c-.46.14-.87.23-1.3.4A17.44,17.44,0,0,0,94,222.87l-1.55,1.2a8.75,8.75,0,0,0-1.32,1.26,16.43,16.43,0,0,0-1.81,2.55,26.54,26.54,0,0,0-1.86,4.18,16.74,16.74,0,0,1-2,3.93,7.67,7.67,0,0,1-4,2.84,1.8,1.8,0,0,0-.33.1,7.5,7.5,0,0,1-2,.41,13.93,13.93,0,0,1-2.5-.06c-1.59-.18-2.9-.5-3.09-.53a35.18,35.18,0,0,1-4.44-1.12A35.94,35.94,0,0,1,64.83,236c-1.19-.57-2.4-1.11-3.55-1.75-.17-.09-.35-.17-.52-.27-.92-.57-3.24-2-5.29-3.57s-3.9-3.14-4.29-3.49a1.19,1.19,0,0,1-.39-.56c-.08-.2-.23-.39-.3-.6s-.05-.4-.13-.58a4.21,4.21,0,0,0-.4-.57.34.34,0,0,1,.09-.5C50.23,224,50.71,223.58,50.88,223.48Z"/><path class="cls-19" d="M44.14,229.58,56.81,236a1.12,1.12,0,0,1,.12,1.18,1.07,1.07,0,0,1-1,.61l-8.3-4.65-2.4-1.47c-.15-.07-2.06-.84-1.81-1.33S44,229.5,44.14,229.58Z"/><path class="cls-19" d="M124.12,224.42a89.07,89.07,0,0,0-17.88.51,1.15,1.15,0,0,1-.93-.89,1.13,1.13,0,0,1,.68-1.1,92.24,92.24,0,0,1,12.21-.34c1.2.08,2.39.18,3.58.31.22,0,2.86,0,2.82.54S124.34,224.43,124.12,224.42Z"/><path class="cls-5" d="M38.49,38.59A140.33,140.33,0,0,0,84.92,25.75c.53-.26,2.13-.53,2.38,0s-1,1.58-1.52,1.84A142.36,142.36,0,0,1,54.67,37.68c-3.16.59-6.33,1.11-9.52,1.49-.29,0-2.18.35-4,.55s-3.6.25-3.63,0A1.05,1.05,0,0,1,38.49,38.59Z"/><path class="cls-5" d="M165.9,76a228.65,228.65,0,0,1-73,8c-.91,0-3.25-.63-3.21-1.18S92.1,82,93,82a227.07,227.07,0,0,0,48.79-2.33c4.75-.72,9.49-1.55,14.19-2.58.44-.08,3.22-.8,5.91-1.46s5.24-1.31,5.32-1C167.35,75.13,166.77,75.75,165.9,76Z"/><path class="cls-5" d="M155.53,73.69a167.06,167.06,0,0,1-53.31,5.78c-.66,0-2.37-.47-2.34-.87s1.77-.63,2.42-.59a166,166,0,0,0,35.62-1.65c3.47-.52,6.93-1.12,10.36-1.87.33-.06,2.36-.59,4.32-1.07s3.83-1,3.89-.75C156.6,73.06,156.17,73.51,155.53,73.69Z"/><rect class="cls-5" x="70.01" y="160.69" width="12.6" height="31.49" rx="6.3" transform="translate(152.61 352.87) rotate(180)"/><circle class="cls-1" cx="70.48" cy="170.91" r="5.91"/><ellipse class="cls-8" cx="184.55" cy="254.35" rx="1.57" ry="2.24"/><ellipse class="cls-8" cx="172.17" cy="256.76" rx="1.27" ry="1.9"/><ellipse class="cls-8" cx="174.14" cy="266.37" rx="5.95" ry="4.4" transform="translate(-142.27 232.27) rotate(-50.67)"/><path class="cls-5" d="M204.17,160.2a2.5,2.5,0,0,1-1.95-.94c-14.91-18.52-25.55-47.5-28.1-76.2-24.41,5.16-49.59,10.26-75.1,9.59-19.49-.53-36.08-2.86-50.73-7.14C27.23,79.37,12.88,66.38,5.62,46.88L.53,32.29a2.5,2.5,0,0,1,3.3-3.14c.36.14,36.91,14.19,91.57-17.84,25-14.63,52-15.08,76.14-1.26,22.57,12.94,38.15,36.56,39.8,59.79L222.42,64a2.51,2.51,0,0,1,3.64,1.8,183,183,0,0,1,1.7,34.51c-1.14,25.64-7.54,45.25-19,58.26a2.51,2.51,0,0,1-2.63.73,2.53,2.53,0,0,1-.37.36A2.46,2.46,0,0,1,204.17,160.2ZM176.38,77.52a2.49,2.49,0,0,1,2.5,2.33c2,28.07,12,56.69,26.33,75.13,21.82-25.06,18-71.83,16.39-84.9l-11.44,6a2.5,2.5,0,0,1-3.67-2.21c0-22.77-15.05-46.69-37.44-59.52-13-7.47-39.6-17.24-71.12,1.23-45.8,26.84-79,22.67-91.06,19.68l3.46,9.89C17,63.07,30.23,75,49.69,80.71c14.23,4.15,30.41,6.42,49.46,6.94,25.92.71,51.73-4.78,76.72-10.07A2.22,2.22,0,0,1,176.38,77.52Z"/><path class="cls-5" d="M99.83,305.49c-16.86,0-32.12-8.35-43.54-15.62-26.13-16.62-40.36-47.61-36.26-79l2.43-18.6,3.67,4.7a127.27,127.27,0,0,0,16,16.23c8.76,7.45,22.18,16.62,36.4,18,1.27.12,1.65-.16,3.3-3.66,2.86-6.11,7.66-16.32,32.44-16.32h.66c20.27,0,26.49,9.28,30.61,15.4,2.39,3.54,3.39,4.77,5.21,4.58,27.44-2.76,52.11-34,52.35-34.28l3.68-4.71,2.43,18.61c4.1,31.35-10.14,62.34-36.26,79h0c-15.46,9.84-29.67,14.62-43.47,14.62l-29.6,1Zm-73.92-101L25,211.56c-3.85,29.43,9.49,58.51,34,74.09,10.85,6.91,25.29,14.84,40.79,14.84l29.6-1c12.89,0,26.23-4.52,40.86-13.84h0c24.5-15.58,37.84-44.66,34-74.09l-.93-7.09c-8.18,9.15-28.77,29.46-52.07,31.8-4.94.5-7.45-3.2-9.86-6.77-3.95-5.87-8.88-13.19-26.58-13.19h-.56c-21.59,0-25.23,7.77-27.9,13.44-1.54,3.29-3.28,7-8.32,6.52C54.69,233.93,34.1,213.62,25.91,204.47Z"/></g></g></svg>